<?xml version="1.0" encoding="UTF-8"?>
<svg width="192px" height="192px" viewBox="0 0 192 192" version="1.1" xmlns="http://www.w3.org/2000/svg" xmlns:xlink="http://www.w3.org/1999/xlink">
    <title>Artboard</title>
    <g id="Artboard" stroke="none" stroke-width="1" fill="none" fill-rule="evenodd">
        <g id="Group" transform="translate(0.000000, 19.000000)" fill="#000000" fill-rule="nonzero">
            <path d="M143.827713,151.696618 C142.954499,152.715367 142.081286,153.685604 141.062536,154.849889 C139.995275,153.734116 139.170574,152.812391 138.200336,151.793641 C137.472658,152.327272 136.842004,152.812391 136.211349,153.248997 C134.853017,154.219235 134.513434,154.122211 133.543197,152.666855 C133.252125,152.230248 132.961054,151.842153 132.475936,151.162987 C131.55421,151.793641 130.632484,152.27876 129.856295,152.957926 C128.740522,153.879652 127.818796,153.782628 126.945582,152.666855 C126.460464,152.084712 125.829809,151.599594 125.344691,151.065963 C124.083382,151.842153 123.064633,152.860902 121.851836,153.103462 C120.299456,153.443045 120.153921,151.260011 118.892612,150.823404 C118.650053,150.72638 118.407493,150.580844 118.06791,150.386797 C115.060174,153.248997 112.87714,150.72638 110.54857,149.076977 C109.966428,149.562095 109.432797,150.338285 108.850655,150.435309 C108.365536,150.532333 107.734882,149.804655 107.104227,149.368048 C106.91018,149.707631 106.716133,150.095726 106.473573,150.483821 C105.842919,151.50257 105.018217,151.454058 104.339051,150.629356 C103.126254,149.222512 102.010481,147.767156 100.797684,146.263288 C99.9729826,147.039478 100.506613,148.688882 98.9057215,148.834417 C98.6631621,148.834417 98.5661384,150.047214 98.3720909,150.677868 C98.0325078,152.036201 97.1107823,152.327272 96.092033,151.357034 C95.6554262,150.920428 95.3158431,150.386797 94.97626,149.901678 C94.6366769,149.465071 94.3456057,149.076977 93.7149514,148.252275 C93.4238801,149.028465 93.1813208,149.610607 92.9387614,150.241261 C92.5991784,150.241261 92.3081071,150.241261 91.968524,150.289773 C91.2893579,149.174 90.6587036,148.009715 89.7854899,146.505847 C88.8152525,148.009715 88.3301338,148.785905 87.8450151,149.610607 C87.3598964,150.386797 86.9232896,151.211499 86.2926353,152.375784 C84.2551367,150.144238 84.2066248,147.330549 82.26615,145.147515 C81.7325195,145.923705 81.1988889,146.699895 80.6652583,147.427573 C79.7920447,148.543346 78.7732954,148.446322 78.2881767,147.185014 C77.803058,146.020729 77.6090105,144.710908 77.1724037,143.061505 C76.5417494,143.98323 76.1051426,144.613884 75.6685357,145.196027 C74.5527627,146.845431 73.8250847,146.796919 72.8548473,145.050491 C72.6122879,144.613884 72.4667523,144.128766 72.1756811,143.498111 C71.0599081,144.613884 70.0896707,145.584122 68.6828264,146.942454 C68.488779,145.729657 68.2947315,145.099003 68.2947315,144.468349 C68.3432434,133.844249 69.7500876,123.414197 72.4667523,113.129681 C75.0863933,103.136236 76.687285,92.9972548 77.803058,82.7127384 C78.1426411,79.6564906 77.8515699,76.5517309 78.0456174,73.4954831 C78.3852004,68.2076892 78.9673429,63.0169191 81.6354957,58.214244 C84.3036486,53.3145451 88.0875744,49.4335955 92.4051309,46.0377646 C93.472392,45.2130628 94.0545345,44.3398492 94.3941175,43.0785406 C95.0247719,40.7014589 95.7524499,38.3728892 96.0435211,35.8502719 C75.1349052,55.8371624 54.1777773,75.8725647 33.1721376,95.9564789 C33.4632088,96.3930857 33.7057682,96.7811807 33.9968394,97.02374 C38.3629077,101.244273 42.728976,105.416294 47.192068,109.588314 C47.8712342,110.218969 48.0652817,110.898135 47.8227223,111.674325 C47.580163,112.499027 47.2405799,113.323728 46.7554612,114.099918 C43.6992134,119.096641 39.9637994,123.511221 35.4521955,127.246635 C35.0641005,127.586218 34.6274937,127.877289 34.1908869,128.216872 C31.910829,129.769252 31.3771984,129.72074 29.4367236,127.780266 C20.704587,119.048129 12.0209623,110.315992 3.33733755,101.583856 C2.85221885,101.098737 2.36710015,100.565107 1.88198145,100.079988 C-0.398076444,97.6058825 -0.543612054,97.1692756 1.10579153,94.3070753 C4.01650373,89.1648171 8.04298894,84.9927963 12.9426878,81.742501 C15.3682813,80.1416093 15.8534,80.1416093 18.0364342,82.1305959 C21.7718481,85.477915 25.4102384,88.9222577 29.2426761,92.4636242 C29.8248186,91.9785055 30.4554729,91.5418987 31.0376153,91.0082681 C53.6441467,69.7600691 76.2506782,48.5603819 98.7601858,27.2636709 C99.6819114,26.3904573 100.361078,25.1776605 100.797684,23.9648638 C102.350064,20.1324261 103.514349,16.1544527 105.260776,12.4190387 C106.328038,10.090469 108.025953,7.90743481 109.723868,5.91844814 C111.130713,4.26904456 111.955414,4.31755643 114.332496,5.14225822 C113.701842,9.84790961 113.071187,14.553561 112.440533,19.3077243 C112.537557,19.3562361 112.683093,19.404748 112.780116,19.4532599 C114.526544,16.0089171 116.272971,12.5160625 118.116422,8.87767221 C119.571778,9.99344522 119.135171,11.1577301 118.892612,12.1764794 C118.019398,16.2999883 117.000649,20.4234973 116.224459,24.5470062 C114.817615,31.9693223 113.459282,39.4401503 112.197974,46.8624664 C111.712855,49.6761549 112.294998,52.247284 113.701842,54.9154368 C115.9819,59.1844814 117.097673,63.9871565 117.582791,68.8383435 C118.164934,74.7082798 118.310469,80.626728 119.232195,86.4481524 C120.250944,92.8517192 121.609277,99.255286 123.25868,105.513317 C124.81106,111.480277 128.497962,116.477 132.378912,121.182651 C137.327123,127.246635 141.450631,133.698714 144.118784,141.072518 C145.331581,144.371325 147.029497,147.476085 148.436341,150.677868 C148.872948,151.648106 149.746161,152.909414 148.630388,153.83114 C147.36908,154.898401 146.689913,153.248997 145.768188,152.763879 C145.137534,152.375784 144.555391,152.036201 143.827713,151.696618 Z M30.2614254,126.179374 C33.9968394,119.533248 38.7995145,114.390989 44.4268914,109.879386 C34.6760056,100.516595 25.0221434,91.2508275 15.3197694,81.9365484 C9.54685691,86.205593 4.5501343,90.8627325 1.88198145,97.5088587 C11.390308,107.162721 20.7530989,116.574024 30.2614254,126.179374 Z M112.731604,70.0026284 C112.586069,66.6553094 112.003926,64.0841803 110.354523,61.9011461 C108.268512,59.1359695 105.648871,59.4270408 104.387563,62.6288242 C103.950956,63.7445972 103.659885,65.0059058 103.611373,66.2187026 C103.465837,69.0809029 103.950956,71.8460795 105.60036,74.2231611 C107.68637,77.1823852 110.354523,76.9398258 111.761367,73.6410187 C112.294998,72.3311982 112.489045,70.8273302 112.731604,70.0026284 Z M98.1295315,30.9990849 C97.9839959,30.8535493 97.8384603,30.7080137 97.6929247,30.5139662 C75.4259764,51.6166297 52.9164687,72.4282219 30.3099373,93.9189803 C31.2801747,94.0645159 31.7652934,94.3070753 32.0078527,94.1615397 C32.5899952,93.7734447 33.0751139,93.2398142 33.6087444,92.7546955 C54.5658723,72.767805 75.5230001,52.7809146 96.480128,32.7455123 C97.0137585,32.2603936 97.5473891,31.6297392 98.1295315,30.9990849 Z M32.3474358,126.713004 C36.762016,124.578482 44.5724271,115.409739 45.2030814,111.916884 C40.9340368,114.439501 34.8700531,121.376699 32.3474358,126.713004 Z M95.703938,108.763613 C95.9950093,105.07671 95.8979855,104.931175 93.3268564,105.513317 C96.3345923,105.31927 94.8792362,107.696351 95.703938,108.763613 Z M88.0390626,110.218969 C88.1360863,110.218969 88.2331101,110.267481 88.2816219,110.267481 C88.2816219,108.569565 88.2816219,106.920161 88.2816219,105.222246 C88.1845982,105.222246 88.0875744,105.222246 88.0390626,105.222246 C88.0390626,106.920161 88.0390626,108.569565 88.0390626,110.218969 Z M113.65333,105.707365 C113.459282,105.707365 113.216723,105.707365 113.022676,105.707365 C113.265235,107.211233 113.556306,108.763613 113.798866,110.267481 C113.895889,110.267481 114.041425,110.218969 114.138449,110.218969 C114.041425,108.715101 113.847377,107.211233 113.65333,105.707365 Z M79.1613904,104.591592 C79.4039497,103.184748 79.6465091,101.729391 79.4524616,100.274035 C79.2099022,100.274035 78.9673429,100.274035 78.7732954,100.322547 C78.918831,101.729391 79.0643666,103.184748 79.1613904,104.591592 Z M82.8968044,104.154985 C82.7512687,104.203497 82.6057331,104.252009 82.5087094,104.300521 C82.6057331,105.707365 82.7027569,107.162721 82.7997806,108.569565 C82.8482925,108.569565 82.8482925,108.569565 82.8968044,108.569565 C82.8968044,107.065697 82.8968044,105.610341 82.8968044,104.154985 Z M101.670898,109.491291 C101.816434,109.442779 101.961969,109.394267 102.107505,109.345755 C101.913457,108.763613 101.670898,108.18147 101.476851,107.599328 C101.379827,107.64784 101.234291,107.696351 101.137267,107.696351 C101.331315,108.327006 101.525362,108.909148 101.670898,109.491291 Z M118.795588,106.580578 C118.941124,106.580578 119.038148,106.580578 119.183683,106.532067 C119.135171,105.998436 119.086659,105.416294 119.038148,104.882663 C118.941124,104.882663 118.795588,104.882663 118.698564,104.931175 C118.698564,105.464805 118.747076,106.046948 118.795588,106.580578 Z" id="Shape"></path>
            <path d="M140.62593,16.4455239 C142.323845,15.9118934 142.566404,16.8821308 142.905988,17.4642732 C144.021761,19.3562361 145.04051,21.2967109 146.107771,23.2371857 C152.802409,35.7047363 159.400023,48.2693107 166.240197,60.6883494 C171.188408,69.6145335 176.524713,78.3466701 181.569948,87.2243423 C184.723219,92.7061836 187.730955,98.3335605 190.738691,103.863914 C191.126786,104.591592 191.466369,105.416294 192,106.483555 C190.205061,107.502304 188.701193,108.472541 187.051789,109.248731 C185.353874,110.024921 184.771731,109.879386 183.801494,108.229982 C182.297626,105.658853 180.84227,103.039212 179.532449,100.322547 C177.106856,95.1317771 174.972334,89.8439833 172.401205,84.701725 C167.35597,74.6112561 162.213712,64.6178108 156.925918,54.6728775 C150.76491,43.0785406 144.409856,31.6297392 138.151824,20.0839142 C137.618194,19.1136768 136.696468,18.2404631 137.327123,16.7365952 C137.812241,16.9791545 138.345872,17.0761782 138.588431,17.3672495 C139.122062,18.0464156 139.510157,18.8711174 139.946763,19.6473074 C147.12652,32.8910479 154.354789,46.0862765 161.534546,59.330017 C161.922641,60.0091832 162.262224,60.7853731 162.747342,61.3675156 C162.94139,61.561563 163.572044,61.4160274 164.396746,61.4160274 C156.489311,46.1833002 148.290805,31.5812274 140.62593,16.4455239 Z" id="Path"></path>
            <path d="M120.542015,21.3452228 C119.377731,19.5987955 119.862849,17.9979038 121.075646,16.0089171 C122.094395,18.2404631 121.560765,19.792843 120.542015,21.3452228 Z" id="Path"></path>
            <path d="M126.023857,6.35505497 C126.120881,3.92946147 127.13963,2.61964098 128.789033,1.55237984 C129.177128,3.34731903 128.594986,4.41458017 126.023857,6.35505497 Z" id="Path"></path>
            <path d="M119.523266,0 C121.221182,1.26130862 120.736063,2.86220033 120.542015,4.851187 C118.650053,3.29880716 118.989636,1.64940358 119.523266,0 Z" id="Path"></path>
            <path d="M128.934569,22.5580196 C127.188142,21.7818296 127.382189,20.3264735 127.285165,18.8226056 C129.128616,19.6958192 129.419688,20.3264735 128.934569,22.5580196 Z" id="Path"></path>
            <path d="M133.591709,18.9681412 C134.367898,20.0354023 135.289624,20.9571278 134.270875,22.4124839 C132.718495,20.8115922 132.718495,20.5690329 133.591709,18.9681412 Z" id="Path"></path>
            <path d="M112.149462,1.11577301 C112.974164,1.74642732 113.750354,2.32856976 114.478032,2.9107122 C114.381008,3.10475968 114.332496,3.29880716 114.235472,3.49285464 C113.750354,3.49285464 113.168211,3.68690212 112.780116,3.44434277 C112.149462,3.00773594 111.421784,2.4255935 112.149462,1.11577301 Z" id="Path"></path>
            <path d="M130.292901,12.4675506 C130.632484,13.2437405 130.923556,14.0199304 131.457186,15.2812391 C129.710759,14.6020729 129.662247,13.6803473 129.516711,12.8071337 C129.807783,12.7101099 130.050342,12.5645743 130.292901,12.4675506 Z" id="Path"></path>
            <path d="M135.241112,7.7618992 C134.65897,8.34404164 134.028315,8.92618408 133.10659,9.84790961 C132.961054,7.90743481 133.591709,7.37380424 134.707482,7.22826863 C134.901529,7.42231611 135.047065,7.56785172 135.241112,7.7618992 Z" id="Path"></path>
            <path d="M124.180406,13.049693 C123.50124,12.5645743 123.210168,12.0309438 124.180406,10.8666589 C124.471477,11.7398725 124.665524,12.322015 124.859572,12.8556456 C124.617013,12.9041574 124.422965,13.0011812 124.180406,13.049693 Z" id="Path"></path>
            <path d="M110.111963,65.9761432 C110.063452,67.1404281 108.947679,68.4502486 108.025953,68.304713 C107.007204,68.1106655 106.522085,67.4314993 106.619109,66.41275 C106.667621,65.2484652 107.589346,64.2782278 108.559584,64.2782278 C109.481309,64.2297159 110.160475,64.9573939 110.111963,65.9761432 Z" id="Path"></path>
        </g>
    </g>
</svg>