<svg width="965" height="502" viewBox="0 0 965 502" xmlns="http://www.w3.org/2000/svg"><g fill-rule="nonzero" fill="none"><path d="M864.1 148.6h100c.1 2 .4 3.6.4 5.2l-.9 195.1c0 5.6-.1 5.6-6 5.6-28.5-.1-57-.1-85.5-.2h-7.2c4 28.2 7.8 55.8 11.8 84.2-6.2.3-11.8.1-17.3.2H759.3c.2 2.2.2 4 .5 5.7 3 16.8 6.1 33.6 9.1 50.4.3 1.9.5 3.9.8 6.5-2.6.2-4.7.5-6.7.5h-76.3c-140.4 0-280.8-.1-421.2-.1-22.3 0-44.7 0-67-.1h-2.2c-3.9-.2-4.5-.8-3.7-4.7 3.2-16.4 6.4-32.8 9.6-49.1.5-2.5.9-4.9 1.4-7.8-8.1-.2-15.7-.4-23.3-.5-29-.7-58.1-1.3-87.1-2-5.5-.1-5.8-.6-5.1-6.2 2.8-22.2 5.6-44.3 8.4-66.4.4-3.4.8-6.8 1.3-11-2.6-.1-4.8-.2-7.1-.2-27.2 0-54.5-.1-81.7-.1H5.2c-3.7-.2-4.5-.9-4.8-4.4-.1-1.3 0-2.5 0-3.8v-188c0-2.3.3-4.6.4-7.4 32.6-.3 64.6-.5 97.5-.8-3.5-28.7-7.8-56.7-11.2-84.8 2.5-2.2 5.1-1.8 7.6-1.8h172.6c-.1-1.9-.1-3.4-.4-4.9-3.5-16.9-7.1-33.7-10.6-50.6-.2-1.1-.6-2.1-.6-3.2-.1-1.9.7-3.2 2.8-3.2 1.6-.1 3.3 0 4.9 0H704.2c-.8 10.3-3.2 20.3-4.8 30.4-1.6 10-3.4 20-5.3 30.5h182.3c0 2.5.3 4.6 0 6.7l-8.1 54.9c-1.6 8-2.8 16.2-4.2 25.4Zm84.3 175.3c-.5-54.3-1-107.7-1.5-161.7h-8.7l-88.8.6c-1.1 0-2.3-.5-3.6-.8 4.4-28.9 8.8-57.3 13.2-86.4h-7.2c-53.6.2-107.2.5-160.7.7-3.3 0-6.5.2-9.8.1-3.1-.1-3.5-.7-3-3.6 1.4-9 2.9-17.9 4.4-26.9 1.6-9.6 3.1-19.2 4.6-28.8-5.5-1.3-408.8-3-413.6-1.9.1.7.1 1.4.2 2.1 3 16.2 6 32.5 8.9 48.7.5 2.6 1.5 5.3-.4 8.3-59.8.5-119.6 1-180 1.6 3.9 28.8 7.8 57 11.7 85.8H14.3v164.8c33.7-.5 67-1.1 101.2-1.6-3.3 29.3-8 57.6-11.3 86.6h7.3c34.5-.1 69-.3 103.5-.4h4.4c2.3.1 3.2 1.4 3 3.6-.1 1.1-.3 2.2-.5 3.2-3.7 17-7.3 34.1-11 51.1-.3 1.3-.3 2.7-.5 4.1h542c-4-20.6-8.8-40.4-12.8-60.8 40.5-.4 80.1-.8 119.9-1.2-4.2-28.7-9.1-56.5-13.2-85.3 34.3-.6 67.8-1.2 102.1-1.9Z" fill="#000"/><path d="M948.4 323.9c-34.3.7-67.8 1.3-102.2 2 4.1 28.8 9 56.6 13.2 85.3-39.8.4-79.4.8-119.9 1.2 3.9 20.5 8.7 40.3 12.8 60.8h-542c.2-1.5.2-2.8.5-4.1 3.6-17 7.3-34.1 11-51.1.2-1.1.4-2.1.5-3.2.2-2.2-.7-3.5-3-3.6-1.5-.1-2.9-.1-4.4 0-34.5.1-69 .3-103.5.4h-7.3c3.3-29 8-57.3 11.3-86.6-34.2.5-67.5 1.1-101.2 1.6V161.8H114c-3.9-28.8-7.8-56.9-11.7-85.8 60.4-.5 120.2-1.1 180-1.6 1.9-3 .9-5.7.4-8.3-2.9-16.3-6-32.5-8.9-48.7-.1-.7-.2-1.4-.2-2.1 4.9-1.2 408.1.6 413.6 1.9-1.5 9.6-3.1 19.2-4.6 28.8-1.4 9-2.9 17.9-4.4 26.9-.5 2.9 0 3.5 3 3.6 3.3.1 6.5 0 9.8-.1 53.6-.2 107.2-.5 160.7-.7h7.2c-4.4 29.1-8.8 57.5-13.2 86.4 1.3.3 2.5.8 3.6.8l88.8-.6h8.7c.6 53.9 1.1 107.4 1.6 161.6ZM432.9 41.5c2.3.6 4.2.2 5.7-1.6-2.7-7.8-11-10.5-17.4-5.9-3.3 2.3-3.5 6-.9 9.1 1.9 2.3 3.9 4.1 7.1 4.5 1.7.2 3.2 1.3 5.2 2.1-2.5 2.7-4.7 2.8-6.5.6-2.1-2.7-4.8-2.6-7.7-2.8 0 4.2.3 4.4 1.8 6.2 3.4 4 7.8 3.9 12.4 3.4 3.1-.3 5.1-2 6.1-4.7s.4-5.4-1.8-7.5c-1.3-1.2-2.7-2.3-4-3.5v.1Zm126.7 348.3c1.4.7 2.7 1.4 4 2.1 1.9 1 3.3 4.4 5.9 2.2 2.2-1.9.4-4.5-.4-6.5-2.9-6.7-6.4-13-8.9-19.8-5.6-15.2-14-28.5-24.2-41-7.9-9.7-15.5-19.9-18.8-32.3-3.4-13-6.3-26.1-8.3-39.3-1.9-12-2.2-24.2-3.4-36.3-1-10-3.3-19.9-8-28.7-3-5.5-4.1-10.8-3.1-16.6 2.6-15.4 5.4-30.7 8.3-46 1.6-8.5 3.7-17 5.5-25.5.5-2.2 1.4-4.5-1.6-6.8-3.8 7.5-7.4 14.7-11 21.8-.2-.1-.5-.2-.7-.3 1.3-9.7 2.6-19.5 3.9-29.2-4.9-1.7-6.6-1.8-9.5 1.6-3.5 4.1-6.9 8.5-9.2 13.4-3.6 7.7-6 15.9-9.2 23.8-1 2.4-2.4 5-4.2 6.8-46.5 43.9-93.1 87.6-139.6 131.4-1.1 1.1-2.4 2-3.7 3-7.9-7.3-15.4-14.4-23.1-21.3-4.5-4-5.4-4.1-10.5-.8-10.1 6.7-18.4 15.4-24.4 25.9-3.4 5.9-3.1 6.8 1.6 11.9 1 1.1 2 2.1 3 3.1 17.9 18 35.9 36 53.8 54 4 4 5 4.1 9.8.9.9-.6 1.8-1.3 2.6-2 9.4-7.7 17.1-16.8 23.3-27.1.9-1.5 1.6-3.2 2.2-5 .5-1.6.1-3-1.3-4.3-9.1-8.6-18.1-17.2-27.2-25.9-.6-.6-1-1.4-1.7-2.2 43.4-41.4 86.5-82.7 129.6-123.9-.7 5.3-2.2 10.1-3.4 14.9-.7 2.6-1.9 4.4-4.1 6.1-8.9 7-16.7 15-22.2 25.1-5.4 9.9-6.6 20.6-7.4 31.5-.4 6.3.1 12.8-.5 19-2.3 21.1-5.5 42.1-11 62.7-5.6 21.2-8.5 42.7-8.6 64.6 0 1.3.4 2.6.8 5.1 2.8-2.8 4.8-4.8 7.2-7.1.6 1.3.9 2.3 1.4 3.2 2 3.6 3.4 3.6 5.8.3.9-1.3 1.8-2.5 3.1-4.4.9 3.4 1.4 6.1 2.3 8.5 1.1 2.7 3.2 2.8 4.9.5 1.1-1.5 2.1-3 3.3-4.7 4 4.5 4.1 10.3 8.3 14.9 1.3-2.4 2.2-4 3.2-5.7 1-1.7 2-3.3 4-6.4 1.8 3.1 3.2 5.4 4.5 7.8.7 0 1.3 0 2-.1.5-1.3 1-2.6 1.6-4.1 1.3 1.7 1.9 2.6 2.6 3.4.8 1 1.4 2.1 2.3 3 2.1 2 4 1.4 4.7-1.4.3-1.3.6-3.8 1.1-3.8 3.3-.3 2.2-3.8 3.9-5.3 2.5 3.2 4.9 6.2 7.3 9 1.5 1.7 3.1 1.8 4.4-.3.5-.7.9-1.5 1.3-2.3 1.3.9 2.6 2.3 3.6 2.2 1.3-.2 2.3-1.7 3.5-2.8 4.8 3.4 9.3 8.6 15.5 2.7.8.4 1.2.7 1.7.9 2.6.9 2.9 5.4 6.1 4.7 2.5-.5 4.6-2.6 7.2-4.2 1.1 1 2.4 2 3.3 3.3 1.8 2.4 3.7 2.5 6 .6 1.6-1.3 3.5-2.4 5.4-3.7 1 1.4 1.7 2.2 2.2 3.1 2 3 2.7 3.2 5.5 1.2 1.3-.9 2.6-1.9 4.1-3 2 2.1 3.7 4 5.9 6.3 2.2-2.3 3.9-4.3 5.7-6.4Zm242.8-142.1c-1.4-6-2.6-12-4.3-17.9-2.2-7.2-6.9-13-13.4-16.5-5.1-2.8-11.1-4-16.7-5.9-.5-.2-1.1 0-1.6.1-6.2 1.2-12.6 1.8-18 5.5-3.4 2.3-7.3 4.5-9.8 7.7-2.4 3.1-2.8 7.8-6.5 10.3-.1.1-.1.3-.1.5-.8 3.3-1.8 6.6-2.3 9.9-.3 2.4 0 4.9.2 7.4.1 2 .6 3.9.7 5.8.3 6.3-.1 12.7 4.1 18.1.4.6.7 1.3 1 1.9 2.8 5.9 6.3 11.2 12.4 14.3 1.4.7 2.5 2 3.9 2.9 1.4.9 2.8 1.8 4.3 2.2 4.5 1.2 9.1 2.2 13.6 3.3.7.2 1.4.5 2.1.4 8-1.4 14.6-5.3 19.3-11.8 8.1-11.3 10.9-24.2 11.1-38.2Zm95.4-34.5c0-.3-.1-.5-.1-.8-3.9.5-8.2.2-11.6 1.8-7.1 3.2-15.2 5.5-18.4 14-.2.6-.9 1.1-1.4 1.7-1.8 2.5-3.8 4.7-2.6 8.4.5 1.4-.9 3.4-1.3 5.1-.6 2.4-1.8 5-1.5 7.3.7 6.8 2.1 13.5 3.2 20.3.9 5.9 5 10.3 7.4 15.6.3.6 1 1.1 1.6 1.4 4.2 2.8 8.3 5.6 12.6 8.2 1.2.8 2.6 1.5 4 1.7 6.1.6 12.2 1.3 18.4 1.3 2.2 0 4.6-1.2 6.5-2.5 2.9-2.1 5.4-4.7 8.2-7.1 3.5-3 5.3-6.8 5.9-11.3 1.7-13.1 3.6-26.2 2.1-39.4-.5-4-8.3-17.5-11.6-19.6-.6-.4-1.3-.7-1.9-1-1.2-.7-2.6-1.4-3.7-2.2-3.4-2.5-7.2-3.3-11.3-3.2-1.6 0-3 .2-4.5.3Zm-210 40.5c4.7.2 8.9.4 13.1.5.9 0 1.9.2 2.7-.1 3.7-1.3 7.6-2.4 11.1-4.3 2.5-1.3 4.8-3.3 6.6-5.5 2.4-2.9 4.3-6.2 6.4-9.5 3.3-5.3 1.9-15.9-2.6-20.2-.7-.6-1.5-1-2.2-1.6-4.1-3.5-9.1-4-14-4.7-5-.7-10.2-.2-15.1-1.4-7.8-1.9-15.1 1-22.7.9-3.1 0-6.1 3.7-6.2 6.5-.1 3.1-.6 6.3.3 9.1 1.4 4.7-.4 8.9-.7 13.3-.3 4.4 1.2 8.9 1.1 13.4-.2 8.1-1 16.2-1.7 24.2-.1 1.4-.9 2.8-.9 4.2 0 3.4 0 6.8.5 10.1.3 2.1 2.2 3.2 4.5 3.2 3.6.1 7.2.4 10.9.5 7.8.1 7.7-.1 7.6-7.9-.4-9.8-1-19.9 1.3-30.7ZM76.9 241.4c1.4-1.9 2.5-3.3 3.4-4.8 6.5-10.1 1.6-21.8-10.1-24-4.4-.8-9-.4-13.4-1.3-7-1.4-14-.6-21-.6-5 0-6.4 1.5-6.7 6.5-.1 1.2.3 2.5.3 3.8.1 2.3.1 4.6 0 6.9-.2 3-1.3 6.2-.9 9.1 1.5 11.1.8 22-1.9 32.8-1 3.8.7 6.9 4.2 7.4 4.9.8 9.9-.6 14.9.5 3.6.8 7.5-.3 11.3-.1 9.8.4 18.1-2.8 24.8-9.9 1.4-1.5 2.9-3.8 2.9-5.7 0-7.6.3-15.5-7.8-20.6ZM246.4 212c-.9-.3-1.7-.8-2.5-.8-3.4-.2-6.8-.2-10.1-.2-4.5-.1-9-.4-13.5-.1-3.6.2-7.1.7-10.5-1.1-1.2-.7-3.1-.1-4.7 0-1.8.2-3.6 1.1-5.3.9-4.6-.3-5.7 2.7-5.3 6.8.3 2.6 0 5.3-.1 8 0 1.3-.4 2.6-.1 3.8 1 5.5-1.3 11.2.9 16.6.3.6 0 1.4 0 2.2-.2 5.9-.6 11.9-.6 17.8 0 3.2.5 6.5 1 9.7.3 1.9 1.3 3.4 3.5 3.5 5.4.4 10.8.8 16.1 1.2 7.7.7 15.4-1.7 23.1.3 1.2.3 2.5.1 3.8-.1 4.2-.7 6.9-4.5 6.4-8.7-.7-5.6-6.2-10.5-11.9-9.9-6.6.7-13.3-1.4-19.7 1.1-.4.1-1-.3-1.7-.5-.2-.8-.6-1.6-.8-2.5-1.3-6-.2-7.2 5.8-6.9 1.3.1 2.7.4 3.8 0 4.6-1.7 9.3-1.1 14-1 1.4 0 3.2-.7 4.1-1.7 2.9-3.4 2.4-7.5 1.5-11.4-.2-.8-1.8-1.8-2.9-1.9-4.8-.5-9.7-.8-14.5-1-4.7-.2-9.5.4-12.7-4.2 1.5-4.5 2.4-5.2 6.4-4.2 3.8 1 7.5.9 11.3.1 2.4-.5 5-.3 7.5-.2 3.2.2 6.3-1.3 7.2-4.4 1-3.5 1.9-7.3.5-11.2Zm-101.2 16.1c0-4.2.4-8.3-.1-12.4-1.1-9.2-1.5-9.3-10.9-7.7-4.8.8-6.7 3.3-6.5 8.2.1 2.5-.2 5-.5 7.4-.1 1.4-.8 2.8-.7 4.2.4 7.2.9 14.3-.8 21.4-.2.7-.1 1.4-.1 2.2.2 6.3.4 12.6.5 19 .2 6.5.4 6.7 6.7 6.5 1.1 0 2.2.1 3.2.2 2.9.3 4.9-1 5.9-3.7.6-1.7 1.3-3.4 1.4-5.2.2-3.4.1-6.9.1-10.3 0-4.3 1.4-6 5.9-6.8.6 1.2 1.2 2.6 2 3.8 3.2 5.1 6.6 10.1 9.6 15.4 2.8 5.1 6 9.1 12.7 8 1.4-.2 2.9.1 4.3 0 4.9-.2 5.3-1.3 4.3-6.1-1.3-6.5-5.9-11.1-9.3-16.3-4.1-6.3-6.6-13.2-10.7-19.3.6-.9 1-1.5 1.5-2 2.3-2 4.9-3.7 6.8-6 3.4-4.2 6.5-8.6 11.4-11.3 1.9-1.1 2.7-2.9 2-5.1-.7-2.3-2.5-2.7-4.7-2.8-3.2-.2-6.4-.9-9.6-1-1.2 0-2.8.6-3.7 1.5-5 4.9-9.7 10-14.6 15-1.5 1.6-3 3.5-6.1 3.2ZM829.8 275c.7-2.7 1.3-4.4 1.6-6.1.2-1.4.2-2.8.1-4.2-.2-3.6-1-7.2-.7-10.7 1-10.8 2.1-21.5 2-32.4-.1-6.6-2.9-9.7-9.5-9.9-1.6 0-3.3.2-4.9.1-7.1-.4-9.3 3-9.5 9.7-.2 6.8.8 13.7 1 20.6.3 10-.4 20.1-1.6 30-.8 7.1-.3 13.7.7 20.4.7 4.2 3.7 5.7 8 4.9 1.6-.3 3.3-.6 4.8-.2 5.7 1.3 11.1.5 16.7-.6 1.9-.4 4.1-.7 5.8 0 4.1 1.7 8 1.2 12.1.3 3.8-.8 4.1-1.1 4.3-4.9.1-2.1.4-4.3.8-6.4.7-4.1-1.2-7.3-5.5-7.9-5.3-.7-10.7-1-16.1-1.5-3-.4-6-.8-10.1-1.2ZM725 433.2c.5-1 .7-1.7 1.1-2 4.1-3.6 4.7-7.9 2.6-12.8-.3-.7-.5-1.4-.5-2.1-.4-4-3.2-5.9-6.6-7.1-9.5-3.4-19.4-3.8-29.3-2.7-2.5.3-4.8 1.4-7.2 2.2-1.9.6-2.9 2-3 4-.5 6.4.5 12.8-.7 19.2-.1.6.6 1.3.6 2 .3 3.6.8 7.2.5 10.7-.4 4.7-1.8 9.2-2.3 13.9-.6 5.8 1.3 7.6 7.1 7.2 2.7-.2 5.4-.7 8.1-.8 7-.3 13.9.6 21-.7 7.5-1.4 11.2-6.7 14.6-12.5.5-.8.3-2.1.3-3.2-.4-5.8-2-11-6.3-15.3ZM553 111c15.7 31.2 32.7 61.3 49 92.6-1.7 0-3 .4-3.4-.1-1.1-1.2-1.8-2.7-2.5-4.2-14.8-27.3-29.7-54.5-44.5-81.8-.9-1.6-1.7-3.2-2.8-4.7-.5-.7-1.6-.9-2.6-1.3-1.3 3.1.6 5 1.7 6.9 12.9 23.8 26 47.4 38.7 71.3 10.9 20.5 21.5 41.1 31.9 61.9 5.3 10.5 9.7 21.5 14.7 32.2 2.6 5.6 5.7 11 8.8 16.3 2 3.4 3.2 3.8 6.7 2.1 3.4-1.6 6.6-3.6 10.2-5.7-1-2.2-1.7-3.9-2.6-5.4-6.3-11.5-12.4-23-18.9-34.3-10.4-18.3-21.4-36.2-31.6-54.7-14.1-25.6-27.7-51.5-41.5-77.2-2.1-4-4.3-8-6.6-11.9-.7-1.1-1.1-3.1-4.7-2ZM249.8 420c1.6-4.2 4.9-4.4 7.9-4.3 3.2.1 5.7 1.6 7.1 4.9 1.9 4.5 10.9 6.2 14.4 2.8.9-.9 1.6-2.5 1.6-3.8.1-4.6-1.6-8.7-5.3-11.4-3.5-2.5-7.4-4.5-11.4-6.1-4.2-1.7-8.6-2.6-13.1-.3-1.6.8-3.4 1.2-5.1 1.8-6.6 2.6-11.4 6.5-12.3 14.2-.5 4.5 3 12.6 7.1 14.7 6.6 3.4 13.1 6.9 20.4 8.8 1.7.4 3.5 1.2 4.8 2.3 2.1 1.7 1.7 3.9-.7 5.2-4.8 2.7-11.6 1.5-14.6-3.2-2.8-4.4-6.9-5.7-11.4-6-2.2-.2-4.8 0-6.1 2.5-1.4 2.5-.8 5 .8 7.1 1.2 1.6 2.7 2.9 3.9 4.5 5.1 7.1 12.7 9.3 20.6 10.1 6.5.7 12.5-.4 18-5.3 5.4-4.8 8.6-12.1 6-19-3-8-10.2-11-17.3-13.3-5.4-1.5-10.5-3.2-15.3-6.2Zm410.8 16.1h-.2c0 2.4.1 4.7 0 7.1-.3 4.6-2.3 6.8-6.9 7.7-1.2.3-2.5.5-3.7.7-5.8.6-9.4-3.2-8.6-8.9.3-1.9.3-3.9.3-5.9 0-5.1-.3-10.2-.2-15.4.1-3.4.8-6.8 1.2-10.2.3-2.1-.5-3.7-2.5-4.2-3.1-.7-6.3-1.6-9.6-.5-3.9 1.3-5.2 3.1-4.8 7.2.2 1.9 0 3.8 0 5.8 0 1.4 0 2.9.1 4.3 0 4.6.4 9.3 0 13.8-.6 6 0 11.5 3.3 16.7 1.2 1.8 1.7 4.4 3.3 5.3 3.6 2 7.5 3.7 11.5 4.5 8.9 1.7 17.6 1.1 25.4-4.5 1-.7 2-1.6 2.6-2.7 3.5-6.4 4.7-13.5 5.2-20.7.1-1.6.1-3.5-.7-4.8-1-1.8-1-3.2-.1-5 .5-1.2.2-2.8.3-4.2 0-1.8-.2-3.6 0-5.4 1-8.7-.9-10.8-9.7-10.1-1.1.1-2.1.4-3.2.5-2.4.4-3.2 1.9-3.3 4.2-.1 3.9 1.6 7.8-.6 11.6-.2.3 0 .7 0 1.1.1 4.2.5 8.1.9 12ZM475 463.6c0-2.1.3-3.5-.1-4.6-1.7-5.3-3.5-10.6-5.6-15.6-2.9-6.6-2.6-14.2-7.2-20.1-.3-.4-.3-1.1-.3-1.6.6-5.5-4-9.1-5.4-13.9-.3-.8-1.5-1.9-2.4-1.9-3.8-.2-7.6-.4-11.4 0-2.9.3-4.6 2.5-5.7 5.2-2 4.9-2 10.6-5.4 15-.3.4-.2 1.1-.4 1.6-2.4 6.4-4.9 12.8-7.3 19.2-1.2 3.4-2.5 6.8-3.2 10.2-.9 4.4.6 6.2 5 6.4 2.5.1 5-.5 7.4-1.1 1.1-.3 2.2-1.3 2.7-2.4 1.4-2.7 2.5-5.5 3.7-8.2 4-.4 7.9-1 11.8-1.1 4.2-.1 6.3 1.5 7 5.3 1.5 8.1 2 7 9.2 7.5 2.5.3 4.8.1 7.6.1Zm106.3-36.1c1.3-5.5-2.4-15.3-6.8-18.3-.6-.4-1.3-.7-2-.9-3.1-1-6.3-1.8-9.3-3.1-3.4-1.4-6.4-1.5-9.6.6-3.9 2.5-8.3 4.4-12.2 6.9-1.9 1.2-3.7 3.1-4.7 5.2-1.2 2.5-1.3 5.6-2.4 8.2-3.4 7.8-.1 15.3 1 22.9.2 1.6 1.5 3.5 2.8 4.5 4.6 3.8 8.6 8.1 15.2 9.4 6.9 1.3 12.8-.8 19-2.6.8-.2 1.5-1 2-1.7 1.8-2.3 3.8-4.4 5.2-6.9 1.3-2.3 2.3-4.9 2.8-7.5.7-3.5-1.2-5.7-4.8-5.6-4.6.2-9.8-.3-11.1 6.1-.1.3-.3.6-.5 1-2.2 3.7-5.7 4.1-9.5 3.6-3.9-.4-5.7-2.9-6.4-6.4-.5-2.5-.4-5.2-1.3-7.5-2-5.5.3-9.6 3.6-13.4 4.5-5 12-3.8 14.6 2.3 1.1 2.6 2.9 3.8 5.2 4.1 3.3.6 6.5.9 9.2-.9Zm-264 33.4c10.4 1.1 20.4-10 20.2-19.7 0-1.4 0-2.9.3-4.3 2.2-10.2.5-19.6-6.9-26.9-3.3-3.3-7.3-6.6-13.1-6.5-4.5.1-8.6-.2-12.1 3.1-.9.8-2.3 1.1-3.5 1.4-5.7 1.1-6.7 6.6-9.8 10.1-.3.3 0 1-.1 1.6-.3 1.5-.5 3.1-.8 4.6-.2 1.2-.8 2.5-.7 3.7.3 3.9.8 7.8 1.4 11.7.7 4 2.3 7.5 5.2 10.5 2.2 2.3 4.9 4.2 7.2 6.2 3.8 3.5 7.9 4.6 12.7 4.5Zm49.1 2c5.8-1 11.5-.5 15.5-5.1.4-.5 1.2-.7 1.9-1.1 4.7-2.9 7.7-10.5 5.9-15.6-.4-1.1-1.8-2.6-2.8-2.7-2.7-.2-5.5-.1-8 .7-1.3.4-2 2.7-2.8 4.3-1.9 3.9-5.4 4.7-9.1 4.8-3.3.2-6.5-1.1-7.4-4.4-1.3-4.7-2.1-9.5-2.4-14.3-.2-3.7 4.5-8.7 7.9-9.6 4-1 8.5.8 11.1 4.8 1.8 2.7 4.4 3.7 7.3 4.1 4.6.6 7.4-2.5 6.2-7-1.7-6-4-11.4-10.5-14.2-6.3-2.7-12.2-4.5-18.6-.8-1.4.8-2.9 1.5-4.4 2.2-7.8 3.6-11.5 10-13.2 18.1-1 4.7-.5 9.3-.4 14 .2 8.6 6.8 12.8 11.1 18.6.2.3.6.4.9.5 4.2.9 8.2 1.8 11.8 2.7Zm371.2-357.6c-3-3.8-6.3-7.1-8.3-11-2.4-4.8-6.1-5.6-10.6-5.6-1.4 0-2.8.1-4.1.2-2.2 2.7-2.2 5-.4 7.6 2.7 4 5 8.3 7.6 12.4 3.2 4.9 3.2 4.9-.3 9.8s-5.8 10.3-8 16c3.8 1.6 7.1 1.4 10.6 1.4 5.4 0 7.7-2.9 9-7.5.5-1.9 1.5-3.6 2.5-5.7 1.1.9 2.1 1.4 2.3 2.1 1.2 4.2 4.3 6.7 7.5 9.5 2.2 2 4 2.7 6.7 2.3 1.6-.2 3.2-.4 4.8-.5 1.4-3.5 1.5-3.6-.3-7-2.4-4.3-4.9-8.4-7.4-12.6-1.9-3.1-2-4.5.5-7.2 2.5-2.6 5-5.2 7.6-7.7 3.2-3.2 4.8-7.1 5.5-11.4-6.6-3.3-13-1.3-16 2.7-2.9 3.9-5.8 7.8-9.2 12.2ZM242.8 99c5.8-3.5 8.7-3.2 11.9 1.9 2.2 3.6 5.7 3.4 9 3.6 1.1.1 2.9-1.7 3.2-2.9.7-2.8.2-5.7-1.8-8.2-5.2-6.1-14.9-8.9-22.6-6.6-1.6.5-3.1 1-4.7 1.4-6.5 2-10.5 9.5-8.2 15.9.6 1.7 2 3.3 3.3 4.6 3.8 4 8.8 5.5 13.8 7.2 2.6.9 5.2 1.7 7.6 3 2.4 1.3 2.1 3.8-.3 5-3.5 1.8-7.8 1.4-9.7-2-2.6-4.7-5.9-6.7-11.1-5.7-.2 0-.3-.1-.5-.1-3.2-.1-5.2 2-3.8 4.7 1.9 3.8 4.1 8.1 7.4 10.5 6.9 5.1 15.2 5.7 23.3 3 4-1.3 7.4-4.3 9-8.2 2.8-6.9-.2-14.7-6.9-18.1-3.7-1.9-7.8-2.9-11.7-4.1-3.1-.8-6.1-1.6-7.2-4.9Zm463.1-10.3c-4.8 0-9 .6-13-.1-6.4-1.1-12.5.2-18.8.2-3.4 0-4 1-4.1 4.3-.1 7.3-.1 14.7-.1 22 0 4.9.1 9.8.4 14.7.3 4.3 1.5 5.6 5.6 5.8 5.8.3 11.5.4 17.3.5 2.9.1 5.7.3 8.6.1 1.3-.1 3-.7 3.8-1.7 2.6-3.3.2-9.6-4.1-10.2-4.4-.6-8.9-.6-13.4-.5-4 .1-4.8-.4-4.6-4.5 0-.7.5-1.3.8-2.1 2.1 0 4.1-.1 6 0 1.9.1 3.9.4 5.8.7 5.6.6 8.1-1.7 7.5-7.5-.1-1.4-.7-2.7-1.1-4-6.6-.4-12.8-.8-19.1-1.2.5-4.4.5-4.5 3-4.5 4 .1 7.9.4 11.9.5 6.1.3 7.9-1.3 7.9-7.3.1-1.4-.1-2.8-.3-5.2Zm-543.8 283c66-.3 131.2 2.3 197.2.3-.1-2.6-.2-4.9-.4-7.5-33.4 0-66.1.1-98.7 0-32.6-.1-65.2.9-97.5.5-.3-1-.5-1.4-.5-1.7 0-5.4 0-10.9-.1-16.3 0-4.7-.4-5.4-5.2-5.7-4-.3-8-.2-11.9.2-5.7.6-6.4 1.4-6.6 7.1-.4 12.1-.7 24.3-1 36.5v5.6c7.7 2.3 19 1.5 24.8-1.6-.1-5.6-.1-11.2-.1-17.4Zm445.3 1.1c66-.4 131.2-.7 197.1-1.1v17.8c8.4 3.1 16.3 2.3 24.7 1.5-.4-15.6-.8-30.5-1.2-45.3-.1-2.8-2.1-3.8-4.3-4.1-3.6-.5-7.2-.8-10.8-.7-8.4.2-8.5.4-8.4 8.6v2.2c0 4.3-.1 8.6-.1 13.4-65.9-.8-131.2-.8-196.9-.8-.1 3-.1 5.2-.1 8.5ZM354.2 109c3.2 3.4 10.7 15.5 12 19.2 1.6 4.5 4.7 6.3 9.3 5.3 5-1 5.9-2.6 5.5-8.2-.5-6.7-.9-13.5-1.3-20.3-.2-3.4-.7-6.8-.3-10.1.6-5 .1-6.1-4.7-7.1-5.3-1.1-6.9.3-6.6 5.7.3 6 .6 12 .9 18.4-3.8-5.8-7.3-11.2-10.8-16.6-.4-.6-.6-1.3-.9-2-2-4.7-5.2-6.5-10.3-5.6-4.2.7-5.2 2.2-4.7 6.3.3 2.5.6 5 .7 7.5.2 4.4.1 8.9.3 13.3.1 1.7.8 3.5.9 5.2.2 3.4-.1 6.7.2 10.1.2 2.5 2 3.9 4.5 3.7 2.1-.2 4.2-.7 6.9-1.2-.6-7.7-1.1-15.3-1.6-23.6ZM97.3 220.7c.2 5.2-2.8 10.3-.4 15.6.1.3.1.8 0 1.1-2.1 5.1-.5 10.4-.8 15.6-.4 5.7-.5 11.5-1.3 17.2-.8 6.1 2.5 9.5 8.5 8.4 2.6-.5 5.3-.9 8-1.2 1.7-.2 2.8-1 2.9-2.6.1-2 0-4 0-6 0-3.4-.1-6.7 0-10.1.2-4.3.5-8.6.7-12.9.4-9.3-.4-18.6.8-28 1-7.2-2.1-9.9-9.2-8.7-1.6.3-3.2.5-4.8.8-3.9.6-5.4 2.5-5 6.3.3 1.3.5 2.9.6 4.5Zm724-116.3c2.3-1.3 3.5-2.4 4.9-2.7 3.2-.7 5.2.6 7.1 3.6.8 1.2 2.1 2.9 3.3 2.9 2.6.1 5.3-.5 7.8-1.1.5-.1 1-1.6.9-2.3-.7-4-1.6-7.9-6-9.6-1.5-.6-3-1.3-4.4-2.1-7.6-3.9-14.5-.9-21.1 2.5-3.9 2-3.6 6.1-4.1 10-.6 5 1.7 7.9 5.6 10.1 3.1 1.8 6.2 3.5 10 4 2.5.3 5 2 7.1 3.7 2.2 1.7 1.4 4.6-1.2 4.7-3.5.2-7.4.7-9.7-3-3.2-5.1-7.7-5-13.1-4.1-.1 6.4 1.7 11.2 7.3 14.8 5.1 3.3 10.7 4.2 16 3.5 5.9-.8 10.9-4.8 13.9-10.3 2.7-5-.1-13.4-5.4-15.8-4.4-2-9-3.7-13.5-5.6-1.4-.7-2.8-1.7-5.4-3.2ZM497.6 448c.4-8.8 1.1-17.6-.6-26.3-.2-1 .2-2.1.3-3.2 1.4-10.1 0-11.5-10.2-10.4-4.3.4-4.9.7-4.7 4.9.2 5.7-2 11.4 0 17.1.6 1.8 0 4 0 5.9-.3 7.9-.8 15.9-1 23.8-.1 3.6 1.4 4.6 5 4.9 3.8.2 7.5.8 11.3 1 2.9.1 5.8.1 8.7-.2 4.4-.5 8.7-1.3 13.8-2.1.8-4.3-.1-8.9-1.5-13.2-7.1-2.3-14.2 1.4-21.1-2.2Zm103.6-1.2c0-4.6-.2-8.2 0-11.7.2-3.2 1-6.4 1-9.7.1-3.8-.5-7.6-.5-11.3 0-6.9-.3-7.2-7.4-7.3h-1.1c-5-.1-6.2.9-6.1 5.8.1 5.4.6 10.8.9 16.2 0 .9 0 1.8-.2 2.7-2.7 8.3-1 16.9-1.6 25.4-.3 4.4 2.9 7 7.5 7 4.9 0 9.7-.2 14.6-.4 3.4-.1 6.9-.1 10.3-.3 1.8-.1 4.1-.3 4.3-2.5.2-3.4 0-6.8-.5-10.2-.1-.8-1.7-1.7-2.7-2.1-3.4-1.2-6.7-2.2-10.5-1.4-2.2.2-4.6-.2-8-.2Zm-381-346.5h-.4c.1-1.8.3-3.6.3-5.4 0-3.5-1.7-5-5.4-5.2-4.1-.1-6.9 1.8-6.9 5.1-.1 7.1-.1 14.2.1 21.4.1 5.6-2.9 9.2-8.2 9.3-4.7.1-7.2-3.5-7-9.5.2-7.3.3-14.7.4-22 0-2.2-1.1-3.6-3.1-3.8-2.3-.2-4.7 0-6.9.3-2.1.3-2.9 2.1-2.9 4-.2 7.1-.3 14.2-.2 21.4 0 2.7.2 5.5.9 8 1.4 5.1 4.5 8.5 9.9 10.5 5.9 2.2 11.5 1.3 17 .1 4.2-.9 8.3-3.3 9.9-7.8 1.3-3.5 2.2-7.2 2.5-10.9.3-5.1 0-10.3 0-15.5Zm583 36c-.2-2.1 0-3.5-.4-4.8-1.3-4.1-2.8-8.1-4.1-12.2-2-6.5-3.9-13-5.9-19.5-1-3.2-2.2-6.6-5.2-8.5-5.7-3.5-11.4-.8-13.8 6.3-2.5 7.3-5 14.6-7.6 21.9-.4 1.2-1.3 2.2-1.8 3.3-1.6 3.9-3.1 7.9-3.7 12 7 3.2 11 2 13.7-4.1 1-2.2 2-3.9 4.5-3.9 3.2 0 7-.7 9.4.9 2.1 1.4 2.5 5.3 3.8 8.1.1.3.5.5 1.2 1.3 2.8-.1 6.2-.4 9.9-.8Zm-659.6-11.9c3.5 0 6.7.2 9.8 0 4-.3 4.5-.1 5.6 3.8 1.6 5.6 1.6 5.6 7.5 6 .7.1 1.4.3 2.2.3 2.9 0 4-1.5 3-4.2-.8-2.4-1.9-4.7-2.9-7-1.6-4-3.5-7.9-4.5-12.1-1.6-6.4-3.7-12.6-6.4-18.7-1.7-3.9-4.4-4.2-7.8-4.1-3.4.1-5.2 1.8-6.4 4.8-2.9 7.9-6 15.7-9 23.6-1.6 4.2-3.1 8.4-4.6 12.6-.7 1.9 0 3.2 1.8 3.9 3.8 1.5 8.9-.7 10.5-4.5.4-1.1.6-2.4 1.2-4.4Zm153.5 9.7c.1-5.8-.3-11.1.6-16.2.9-5.2-1.7-10.8 1.5-15.6 3.3-1.8 6.9 2.3 10.1-.7V91.3c-1.4-.3-2.6-.8-3.8-.9-8.1-.3-16.2-.5-24.3-.7-5.6-.1-5.6 0-7 5.4-.4 1.3-1 2.6-1.6 3.8 3.3 3.6 7.5 3.6 11.7 3.8.3 1 .9 1.9.8 2.7-.2 3.4-.7 6.8-.8 10.2-.2 5-.4 10.1-.2 15.1.1 4.1 1.3 5.1 5.4 4.7 2.4-.2 4.9-.8 7.6-1.3ZM659 101.7c0-3.9.2-7.2-.1-10.3-.1-.9-1.4-2.3-2.4-2.4-3.7-.7-7.4-1.1-11.2-1.3-4.8-.2-9.6-.2-14.3.1-2.2.2-4.6 1-6.5 2.2-.7.5-.1 2.9-.2 4.4-.1.9-.3 1.8-.4 2.7-.4 2.4.9 3.4 3.1 3.4 2.7 0 5.3-.2 8.3-.4v14.5c0 3.4-.3 6.8 0 10.2.2 3.1 1 6.2 1.6 9.4 2.7-.2 4.9-.6 7-.5 4.3.2 4.8 0 4.7-4.1-.1-6.3-.5-12.6-.2-19 .1-3 .5-5.8-1.2-8.5-.1-.2.2-.7.3-1.2 3.7-1.9 7.3-.1 11.5.8ZM414.3 411.9c.7-4.7-.3-6.5-3.9-6.4-3 0-6.2.5-9.1 1.4-1.1.3-2.6 2.7-2.4 3.6 1.2 4.4-.2 8.6-.3 12.9-.3 10.6-.7 21.2-1 31.9 0 1.1-.1 2.2.2 3.2.6 2.9 2.6 4 5.6 3.4 1.4-.3 2.8-.7 4.2-.7 4.1-.1 6-1.6 6.1-5.5.2-4.1.3-8.2.3-12.3l.3-31.5Zm-87-322.2c-7.2.6-7.9 1-8 6-.4 11.3-.8 22.6-.9 34-.1 5.8.5 6.2 6.6 5.7h1.1c5-.3 8.1-3 6.9-7.4-1.6-6-.2-11.8-.5-17.7-.3-5 0-10 .5-15 .3-5.2-.4-6.1-5.7-5.6Zm201.3-44.3c-.2-3.8.7-8-2.5-11.5-3.4-3.7-9.6-2.7-10.8 2.1-1.2 5.2-2 10.6-2.2 15.9-.2 4.7 3.2 7.3 7.9 6.3 5.9-1.3 7.7-3.4 7.4-8.2-.1-1.4.1-2.8.2-4.6ZM397.5 32.9v18.2c0 2 .9 3.3 2.7 3.4 4.5.2 8.9.1 13.4.1.7-5.3.6-5.5-4.1-5.4H403c2.1-6 7-1.1 9.9-4.3-.1-.9-.1-2.4-.2-3.7-3.3-1.2-6.7.9-9.4-1.9 3.2-3 7.2.6 10.5-1.9v-4.6c-5.6.1-10.8.1-16.3.1Zm87.4 21.4c1.9 1.3 2.9 2.5 4 2.7 1.9.3 3.9-.1 5.9-.2 2.5-.1 5-.2 7.4-.2 1.2 0 2.4.2 3.9.3v-5.2c-1.7-.4-3.2-.7-5-1.1.8-3 1.8-5.7 2.3-8.5.9-4.9-1.1-8.3-5.1-9.4-6.2-1.7-11.8 3.3-11.1 9.8 2.5 1.2 3.8 0 5.1-2.1.6-1 2.4-1.2 3.6-1.7.6 1.4 2 3.2 1.6 4.2-.8 2-2.4 3.9-4.1 5.4-2.2 2-5 3.6-8.5 6Zm55.8 2.8c5.8 0 7.8-.9 7.9-5.9.1-5.7-1-11.4-2.2-17-.5-2.4-4.2-3.5-6.4-1.9-1.5 1.1-2.8 2.9-3.3 4.6-1.1 4-2 8.1-2.5 12.2-.7 5.7 1.3 8 6.5 8Zm-86.2.1V39.6c2.2-.1 3.8-.2 5.4-.3 2.1-.2 3.2-1.4 3.2-3.6 0-2.3-1.4-3.3-4.5-3.4-4.3-.1-8.6-.2-12.9-.1-1.5 0-3.1.3-4.9.5-.1 2.2-.2 4-.4 6.3 2.5.5 4.9 1 7.8 1.6v16.8c2.1-.2 3.7-.2 6.3-.2Zm114.5-1c-1-6.6 1.3-12.1-.2-17.9-1.2-4.3-1.9-5.9-6.4-6.5-3-.4-6.3-.1-7.7 2.7-1.2 2.6-1.5 5.9-1.1 8.8.2 1.9 2.2 3.7 4.9 3.2 1.1-.2 2.3 0 3.9 0v11c2.4-.6 4.3-.9 6.6-1.3Zm-57.4 64.9c2.1-3.2 3.2-6.4 1.1-11-2.5 4.2-3.5 7.4-1.1 11Zm11.3-30.9c5.3-3.9 6.6-6.2 5.7-9.9-3.4 2.2-5.6 4.9-5.7 9.9Zm-13.4-13.1c-1.2 3.4-1.9 6.8 2.1 10 .4-4.1 1.4-7.4-2.1-10Zm19.4 46.5c.9-4.6.4-5.9-3.4-7.7.2 3.1-.1 6.1 3.4 7.7Zm9.6-7.4c-1.9 3.4-1.8 3.8 1.4 7.1 2.1-3 .2-4.9-1.4-7.1Zm-44.2-36.8c-1.6 2.8-.1 4 1.4 4.8.7.4 2 .1 3 .1.2-.4.3-.8.5-1.2-1.6-1.2-3.1-2.4-4.9-3.7Zm37.4 23.4c-.5.2-1 .5-1.6.7.3 1.8.4 3.8 4 5.1-1-2.6-1.7-4.2-2.4-5.8Zm10.2-9.7-1.1-1.1c-2.3.3-3.6 1.4-3.3 5.4 1.9-1.9 3.2-3.1 4.4-4.3Zm-81.3-35.3c.8-1.2 1.6-1.9 1.8-2.8.1-.4-1.2-1.4-1.7-1.4-.7.1-1.5 1-1.6 1.7-.2.7.7 1.4 1.5 2.5Zm58.5 46.2c.5-.1.9-.3 1.4-.4-.4-1.1-.8-2.3-1.4-4.1-2 2.4-1.4 3.5 0 4.5Zm-20.6-5.4c3.5-.3 3.5-.3 3.9-3.6-1.5 1.3-2.4 2.2-3.9 3.6Z" fill="#FFF"/><path d="M559.6 389.8c-1.8 2.1-3.6 4.1-5.7 6.5-2.2-2.3-3.9-4.2-5.9-6.3-1.5 1.1-2.8 2.1-4.1 3-2.8 2-3.5 1.8-5.5-1.2-.6-.9-1.2-1.7-2.2-3.1-1.9 1.3-3.8 2.3-5.4 3.7-2.3 1.9-4.2 1.7-6-.6-1-1.2-2.3-2.2-3.3-3.3-2.6 1.6-4.7 3.7-7.2 4.2-3.2.7-3.5-3.8-6.1-4.7-.5-.2-1-.5-1.7-.9-6.2 5.9-10.7.7-15.5-2.7-1.2 1-2.3 2.6-3.5 2.8-1 .2-2.3-1.3-3.6-2.2-.4.7-.8 1.5-1.3 2.3-1.3 2.1-3 2-4.4.3-2.5-2.9-4.8-5.9-7.3-9-1.7 1.6-.6 5-3.9 5.3-.5 0-.7 2.5-1.1 3.8-.7 2.8-2.6 3.4-4.7 1.4-.9-.9-1.6-2-2.3-3-.7-.9-1.3-1.7-2.6-3.4-.6 1.6-1.1 2.8-1.6 4.1-.7 0-1.3 0-2 .1-1.4-2.3-2.7-4.7-4.5-7.8-2 3.1-3 4.7-4 6.4-1 1.6-1.9 3.3-3.2 5.7-4.2-4.6-4.3-10.4-8.3-14.9-1.1 1.6-2.2 3.2-3.3 4.7-1.8 2.3-3.9 2.1-4.9-.5-1-2.4-1.4-5.1-2.3-8.5-1.3 1.9-2.2 3.2-3.1 4.4-2.3 3.4-3.8 3.3-5.8-.3-.5-.9-.8-1.9-1.4-3.2-2.3 2.3-4.3 4.3-7.2 7.1-.4-2.5-.8-3.8-.8-5.1.1-21.9 3-43.4 8.6-64.6 5.4-20.6 8.7-41.5 11-62.7.7-6.3.1-12.7.5-19 .7-10.9 1.9-21.6 7.4-31.5 5.5-10.1 13.3-18.1 22.2-25.1 2.2-1.7 3.4-3.5 4.1-6.1 1.3-4.9 2.8-9.7 3.4-14.9-43.1 41.2-86.3 82.5-129.6 123.9.6.9 1.1 1.7 1.7 2.2 9 8.7 18 17.3 27.2 25.9 1.4 1.3 1.8 2.7 1.3 4.3-.5 1.7-1.2 3.4-2.2 5-6.3 10.3-14 19.4-23.3 27.1-.8.7-1.7 1.3-2.6 2-4.7 3.2-5.8 3.1-9.8-.9-18-18-35.9-36-53.8-54-1-1-2-2.1-3-3.1-4.7-5.1-5-6-1.6-11.9 6-10.6 14.3-19.2 24.4-25.9 5-3.3 6-3.3 10.5.8 7.7 6.9 15.2 14 23.1 21.3 1.2-1 2.5-1.9 3.7-3 46.6-43.8 93.2-87.5 139.6-131.4 1.9-1.8 3.3-4.3 4.2-6.8 3.2-7.9 5.6-16.1 9.2-23.8 2.2-4.8 5.7-9.3 9.2-13.4 2.9-3.4 4.6-3.3 9.5-1.6-1.3 9.7-2.6 19.4-3.9 29.2.2.1.5.2.7.3 3.6-7.1 7.2-14.3 11-21.8 3 2.3 2.1 4.7 1.6 6.8-1.8 8.5-3.9 17-5.5 25.5-2.9 15.3-5.7 30.7-8.3 46-1 5.8.2 11.1 3.1 16.6 4.7 8.8 7 18.7 8 28.7 1.2 12.1 1.5 24.3 3.4 36.3 2.1 13.2 4.9 26.4 8.3 39.3 3.2 12.3 10.8 22.6 18.8 32.3 10.2 12.5 18.7 25.8 24.2 41 2.5 6.8 6 13.2 8.9 19.8.9 2 2.7 4.6.4 6.5-2.6 2.2-4-1.2-5.9-2.2-1.3-.8-2.5-1.5-4-2.2Zm-234.1-52.6c7.7-13.7 17.6-24.3 29.2-33.6-20.1-19.3-40-38.4-60-57.6-11.9 8.8-22.2 18.4-27.7 32.1 19.6 19.9 38.9 39.3 58.5 59.1Zm170-115.8c-.3-6.9-1.5-12.2-4.9-16.7-4.3-5.7-9.7-5.1-12.3 1.5-.9 2.3-1.5 4.9-1.6 7.4-.3 5.9.7 11.6 4.1 16.5 4.3 6.1 9.8 5.6 12.7-1.2 1.1-2.7 1.5-5.8 2-7.5ZM465.4 141c-.3-.3-.6-.6-.9-1-45.9 43.5-92.3 86.4-138.9 130.7 2 .3 3 .8 3.5.5 1.2-.8 2.2-1.9 3.3-2.9 43.2-41.2 86.4-82.4 129.6-123.7 1.1-1 2.2-2.3 3.4-3.6ZM329.8 338.3c9.1-4.4 25.2-23.3 26.5-30.5-8.8 5.2-21.3 19.5-26.5 30.5Zm130.6-37c.6-7.6.4-7.9-4.9-6.7 6.2-.4 3.2 4.5 4.9 6.7Zm-15.8 3c.2 0 .4.1.5.1V294h-.5v10.3Zm52.8-9.3h-1.3c.5 3.1 1.1 6.3 1.6 9.4.2 0 .5-.1.7-.1-.2-3.1-.6-6.2-1-9.3Zm-71.1-2.3c.5-2.9 1-5.9.6-8.9-.5 0-1 0-1.4.1.3 2.9.6 5.9.8 8.8Zm7.7-.9c-.3.1-.6.2-.8.3.2 2.9.4 5.9.6 8.8h.2v-9.1Zm38.7 11 .9-.3c-.4-1.2-.9-2.4-1.3-3.6-.2.1-.5.2-.7.2.4 1.3.8 2.5 1.1 3.7Zm35.3-6c.3 0 .5 0 .8-.1-.1-1.1-.2-2.3-.3-3.4-.2 0-.5 0-.7.1 0 1.1.1 2.3.2 3.4ZM802.4 247.7c-.2 13.9-3 26.9-11.2 38.2-4.7 6.5-11.3 10.4-19.3 11.8-.6.1-1.4-.2-2.1-.4-4.5-1.1-9.1-2-13.6-3.3-1.5-.4-2.9-1.3-4.3-2.2-1.4-.9-2.5-2.1-3.9-2.9-6.1-3.1-9.6-8.4-12.4-14.3-.3-.7-.5-1.4-1-1.9-4.2-5.4-3.8-11.9-4.1-18.1-.1-2-.5-3.9-.7-5.8-.2-2.5-.5-5-.2-7.4.5-3.3 1.5-6.6 2.3-9.9 0-.2 0-.4.1-.5 3.7-2.5 4.1-7.2 6.5-10.3 2.5-3.2 6.3-5.3 9.8-7.7 5.4-3.6 11.8-4.3 18-5.5.5-.1 1.1-.2 1.6-.1 5.6 1.9 11.6 3.1 16.7 5.9 6.4 3.5 11.2 9.3 13.4 16.5 1.8 6 3 12 4.4 17.9Zm-36.2-19.1c-3.7-.5-7.2.3-9.4 3.1-3.1 3.8-5.1 8-5.7 13.2-.7 6.9 1 13.3 2.2 19.8.3 1.5 1 3.2 2.1 4.3 2.2 2.1 4.7 3.9 7.1 5.7 4.3 3.1 12.6 2.2 15.6-2.2 4-5.9 6.2-12.8 5.5-19.9-.6-5.9-2.6-11.6-4-17.4-.2-.9-.5-2.1-1.1-2.4-4.1-1.5-7.2-6-12.3-4.2ZM897.8 213.2c1.4-.1 2.9-.3 4.3-.4 4.1 0 7.9.7 11.3 3.2 1.1.9 2.4 1.5 3.7 2.2.6.4 1.3.6 1.9 1 3.3 2.1 11.2 15.6 11.6 19.6 1.5 13.3-.4 26.3-2.1 39.4-.6 4.5-2.4 8.3-5.9 11.3-2.7 2.3-5.3 5-8.2 7.1-1.9 1.3-4.3 2.5-6.5 2.5-6.1-.1-12.3-.7-18.4-1.3-1.4-.1-2.8-.9-4-1.7-4.2-2.7-8.4-5.5-12.6-8.2-.6-.4-1.3-.8-1.6-1.4-2.4-5.2-6.5-9.7-7.4-15.6-1.1-6.8-2.4-13.5-3.2-20.3-.3-2.4.9-4.9 1.5-7.3.4-1.7 1.8-3.7 1.3-5.1-1.2-3.6.8-5.9 2.6-8.4.4-.6 1.1-1 1.4-1.7 3.2-8.5 11.3-10.8 18.4-14 3.5-1.5 7.7-1.2 11.6-1.8.3.4.3.7.3.9Zm16.5 49.4h.3c-.3-4.9-.1-9.8-.9-14.6-1.1-6.1-3.4-11.5-9.7-14.7-3.3-1.7-6.3-.6-9.4-.9-4.4-.4-7.2 2.3-8.6 5.4-4.3 8.9-5.8 18.1-2.2 27.8 2.1 5.8 6.8 9.4 11.4 12.6 2.6 1.8 6.9 1.5 10.5 1.3 5.5-.3 8.9-4.7 8.7-10.4-.2-2.2-.1-4.4-.1-6.5ZM687.8 253.7c-2.3 10.8-1.7 20.9-1.5 30.9.2 7.8.2 8-7.6 7.9-3.6-.1-7.2-.4-10.9-.5-2.3-.1-4.1-1.1-4.5-3.2-.5-3.3-.5-6.7-.5-10.1 0-1.4.8-2.8.9-4.2.6-8.1 1.4-16.2 1.7-24.2.1-4.5-1.4-9-1.1-13.4.3-4.4 2.2-8.6.7-13.3-.9-2.8-.3-6.1-.3-9.1.1-2.9 3.1-6.6 6.2-6.5 7.6.1 14.9-2.8 22.7-.9 4.8 1.2 10.1.7 15.1 1.4 4.9.7 10 1.2 14 4.7.7.6 1.5 1 2.2 1.6 4.5 4.3 5.9 14.9 2.6 20.2-2 3.2-3.9 6.6-6.4 9.5-1.8 2.2-4.1 4.2-6.6 5.5-3.5 1.8-7.3 3-11.1 4.3-.8.3-1.8.1-2.7.1-4-.3-8.2-.5-12.9-.7Zm19.6-26.4c-3.9-2.3-8.2-1.8-12.5-1.9-7.7-.2-7.7-.4-8.6 7-.5 4.5.1 5.4 4.7 5.3 3.1-.1 6.1-.6 9.2-.6 6.3 0 8.9-3.4 7.2-9.8ZM76.9 241.4c8.1 5.1 7.8 13 7.8 20.5 0 1.9-1.5 4.2-2.9 5.7-6.7 7.1-15 10.3-24.8 9.9-3.8-.1-7.7.9-11.3.1-5-1.1-10 .3-14.9-.5-3.5-.5-5.2-3.6-4.2-7.4 2.8-10.8 3.5-21.7 1.9-32.8-.4-2.9.7-6.1.9-9.1.2-2.3.1-4.6 0-6.9 0-1.3-.4-2.5-.3-3.8.3-5 1.6-6.5 6.7-6.5 7 0 14-.8 21 .6 4.4.9 9 .5 13.4 1.3 11.8 2.2 16.6 13.9 10.1 24-.9 1.6-2 3-3.4 4.9ZM46.2 261c3.9.5 6.7 1 9.6 1.2 1.9.1 3.9.2 5.8-.2 4.2-.9 4.8-1.9 4.6-6.5-.2-3.5-1.5-5.1-5.3-5.4-4.2-.4-8.5-.3-12.9-.4-.7 4.1-1.2 7.6-1.8 11.3Zm1.9-34.5c-.5 3.1-.8 5.7-1.4 9.2 3.3-.3 5.7-.4 8.1-.9 1.7-.4 3-1.5 4.8.2 1.4 1.3 3.9-.4 4.8-2.8 1-2.7.4-5.2-1.7-5.4-4.7-.4-9.4-2.2-14.6-.3ZM246.4 212c1.4 4 .5 7.7-.6 11.3-.9 3.1-4 4.6-7.2 4.4-2.5-.2-5.1-.3-7.5.2-3.8.7-7.5.8-11.3-.1-4-1-4.9-.3-6.4 4.1 3.2 4.6 8.1 4 12.7 4.2 4.8.2 9.7.5 14.5 1 1.1.1 2.7 1.1 2.9 1.9.9 3.9 1.4 8-1.5 11.4-.9 1-2.7 1.8-4.1 1.7-4.7-.1-9.4-.7-14 1-1.1.4-2.5.1-3.8 0-6.1-.3-7.1.8-5.8 6.9.2.9.5 1.7.8 2.5.7.2 1.3.7 1.7.5 6.5-2.5 13.1-.4 19.7-1.1 5.8-.6 11.3 4.3 11.9 9.9.5 4.2-2.2 8-6.4 8.7-1.2.2-2.6.4-3.8.1-7.7-2.1-15.4.3-23.1-.3-5.4-.5-10.8-.9-16.1-1.2-2.2-.2-3.2-1.6-3.5-3.5-.5-3.2-1-6.5-1-9.7 0-5.9.4-11.9.6-17.8 0-.7.3-1.5 0-2.2-2.3-5.4 0-11.1-.9-16.6-.2-1.2.1-2.5.1-3.8.1-2.7.3-5.4.1-8-.4-4.1.7-7.1 5.3-6.8 1.7.1 3.5-.7 5.3-.9 1.6-.2 3.5-.7 4.7 0 3.5 1.8 6.9 1.3 10.5 1.1 4.5-.2 9 .1 13.5.1 3.4.1 6.8.1 10.1.2.9 0 1.7.5 2.6.8ZM145.2 228.1c3.1.3 4.7-1.6 6.3-3.2 4.9-5 9.7-10.1 14.6-15 .9-.9 2.5-1.5 3.7-1.5 3.2.1 6.4.8 9.6 1 2.2.1 4 .5 4.7 2.8.7 2.2-.1 4-2 5.1-4.9 2.7-8 7.1-11.4 11.3-1.9 2.3-4.5 4-6.8 6-.5.5-.9 1.1-1.5 2 4.1 6.1 6.6 13.1 10.7 19.3 3.4 5.1 7.9 9.8 9.3 16.3 1 4.8.5 5.9-4.3 6.1-1.4 0-2.9-.3-4.3 0-6.7 1.1-9.8-2.9-12.7-8-3-5.3-6.4-10.3-9.6-15.4-.8-1.2-1.3-2.5-2-3.8-4.5.8-5.9 2.5-5.9 6.8 0 3.4.1 6.9-.1 10.3-.1 1.8-.8 3.5-1.4 5.2-1 2.7-3 4-5.9 3.7-1.1-.1-2.2-.3-3.2-.2-6.4.3-6.6 0-6.7-6.5-.2-6.3-.4-12.6-.5-19 0-.7-.1-1.5.1-2.2 1.7-7.1 1.2-14.3.8-21.4-.1-1.4.6-2.8.7-4.2.2-2.5.6-5 .5-7.4-.2-4.9 1.6-7.4 6.5-8.2 9.4-1.6 9.8-1.5 10.9 7.7.3 4.1-.1 8.2-.1 12.4ZM829.8 275c4 .5 7 .8 10 1.1 5.4.5 10.8.7 16.1 1.5 4.3.6 6.2 3.7 5.5 7.9-.4 2.1-.7 4.3-.8 6.4-.3 3.8-.6 4.1-4.3 4.9-4.1.9-8 1.4-12.1-.3-1.7-.7-3.9-.4-5.8 0-5.6 1.1-11 1.9-16.7.6-1.5-.3-3.2-.1-4.8.2-4.3.8-7.3-.7-8-4.9-1-6.7-1.6-13.4-.7-20.4 1.2-9.9 1.9-20 1.6-30-.2-6.9-1.2-13.7-1-20.6.2-6.6 2.4-10.1 9.5-9.7 1.6.1 3.3-.1 4.9-.1 6.6.2 9.5 3.3 9.5 9.9.1 10.8-.9 21.6-2 32.4-.3 3.5.5 7.1.7 10.7.1 1.4.1 2.8-.1 4.2-.2 1.8-.8 3.5-1.5 6.2ZM725 433.2c4.3 4.3 5.9 9.5 6.2 15.3.1 1.1.2 2.4-.3 3.2-3.5 5.8-7.1 11-14.6 12.5-7 1.3-14 .4-21 .7-2.7.1-5.4.6-8.1.8-5.8.4-7.7-1.4-7.1-7.2.5-4.7 1.9-9.2 2.3-13.9.3-3.5-.3-7.1-.5-10.7-.1-.7-.7-1.4-.6-2 1.2-6.4.2-12.8.7-19.2.2-2.1 1.1-3.4 3-4 2.4-.8 4.8-1.9 7.2-2.2 9.9-1 19.8-.6 29.3 2.7 3.4 1.2 6.1 3.1 6.6 7.1.1.7.3 1.4.5 2.1 2.1 4.9 1.5 9.2-2.6 12.8-.4.3-.5.9-1 2Zm-26.7 18.3h13.1c2.5 0 3.5-1.6 3.8-3.7.4-2.1-.3-4-2.4-4.9-4.6-1.8-9.3-1.4-14.1-1-.1 3.3-.3 6-.4 9.6Zm.5-23.1c3.6 0 6.6-.2 9.6 0 2.7.2 4.5-.7 4.9-2.9.5-2.6-1.2-3.7-3.2-4.2-2.3-.5-4.6-.6-7-.8-4.4-.4-5 .1-4.8 4.5 0 1.1.3 2.1.5 3.4ZM553 111c3.5-1.1 4 .9 4.7 2.1 2.3 3.9 4.4 7.9 6.6 11.9 13.8 25.7 27.4 51.6 41.5 77.2 10.2 18.4 21.2 36.4 31.6 54.7 6.5 11.3 12.7 22.9 18.9 34.3.8 1.5 1.5 3.2 2.6 5.4-3.7 2.1-6.8 4.1-10.2 5.7-3.5 1.6-4.7 1.3-6.7-2.1-3.1-5.3-6.1-10.7-8.8-16.3-5-10.7-9.4-21.6-14.7-32.2-10.4-20.8-21-41.4-31.9-61.9-12.7-23.9-25.8-47.5-38.7-71.3-1.1-2-3-3.8-1.7-6.9 1 .5 2.1.7 2.6 1.3 1.1 1.4 1.9 3.1 2.8 4.7 14.8 27.3 29.7 54.5 44.5 81.8.8 1.4 1.5 3 2.5 4.2.4.4 1.7.1 3.4.1-16.3-31.4-33.2-61.5-49-92.7ZM249.8 420c4.8 2.9 9.9 4.6 15.2 6.4 7.1 2.3 14.2 5.3 17.3 13.3 2.6 6.9-.5 14.2-6 19-5.5 4.9-11.6 6-18 5.3-7.9-.8-15.6-3-20.6-10.1-1.1-1.6-2.7-2.9-3.9-4.5-1.6-2.2-2.2-4.6-.8-7.1 1.3-2.5 3.9-2.6 6.1-2.5 4.6.3 8.6 1.6 11.4 6 3 4.8 9.8 5.9 14.6 3.2 2.3-1.3 2.8-3.6.7-5.2-1.4-1.1-3.1-1.9-4.8-2.3-7.3-1.9-13.8-5.4-20.4-8.8-4.1-2.1-7.6-10.2-7.1-14.7.8-7.7 5.7-11.6 12.3-14.2 1.7-.7 3.5-1 5.1-1.8 4.5-2.3 8.9-1.3 13.1.3 4 1.6 8 3.6 11.4 6.1 3.7 2.6 5.4 6.8 5.3 11.4 0 1.3-.7 2.9-1.6 3.8-3.5 3.5-12.4 1.8-14.4-2.8-1.4-3.3-4-4.8-7.1-4.9-2.9-.3-6.2-.1-7.8 4.1ZM660.6 436.1c-.4-3.9-.8-7.9-1.1-11.8 0-.4-.2-.8 0-1.1 2.1-3.8.4-7.7.6-11.6.1-2.3.9-3.8 3.3-4.2 1.1-.2 2.1-.4 3.2-.5 8.8-.7 10.7 1.4 9.7 10.1-.2 1.8 0 3.6 0 5.4 0 1.4.3 3-.3 4.2-.8 1.8-.9 3.2.1 5 .7 1.3.8 3.2.7 4.8-.5 7.2-1.6 14.3-5.2 20.7-.6 1-1.6 2-2.6 2.7-7.7 5.5-16.5 6.2-25.4 4.5-4-.8-7.9-2.5-11.5-4.5-1.6-.9-2.2-3.6-3.3-5.3-3.3-5.1-3.9-10.7-3.3-16.7.5-4.6.1-9.2 0-13.8 0-1.4-.1-2.9-.1-4.3 0-1.9.2-3.9 0-5.8-.4-4.1.9-5.8 4.8-7.2 3.4-1.2 6.5-.2 9.6.5 2 .4 2.8 2 2.5 4.2-.5 3.4-1.1 6.8-1.2 10.2-.1 5.1.2 10.2.2 15.4 0 2-.1 4-.3 5.9-.8 5.7 2.8 9.4 8.6 8.9 1.3-.1 2.5-.4 3.7-.7 4.6-1 6.6-3.1 6.9-7.7.2-2.3 0-4.7 0-7.1.3-.2.3-.2.4-.2ZM475 463.6c-2.8 0-5.1.1-7.4 0-7.3-.5-7.7.6-9.2-7.5-.7-3.8-2.8-5.4-7-5.3-3.9.1-7.9.7-11.8 1.1-1.2 2.7-2.3 5.6-3.7 8.2-.5 1-1.7 2.1-2.7 2.4-2.4.6-5 1.2-7.4 1.1-4.3-.1-5.8-2-5-6.4.7-3.5 2-6.9 3.2-10.2 2.4-6.4 4.9-12.8 7.3-19.2.2-.5.1-1.2.4-1.6 3.4-4.4 3.4-10.1 5.4-15 1.1-2.7 2.8-5 5.7-5.2 3.8-.4 7.6-.2 11.4 0 .9 0 2.1 1.1 2.4 1.9 1.4 4.8 6 8.4 5.4 13.9-.1.5 0 1.2.3 1.6 4.5 5.9 4.3 13.5 7.2 20.1 2.2 4.9 4 10.3 5.6 15.6.2 1.1-.1 2.4-.1 4.5ZM443.6 437h9c-1.7-3.7-3.2-7-5.1-11-1.5 4.1-2.5 7.1-3.9 11ZM581.3 427.5c-2.8 1.9-5.9 1.5-8.9 1.1-2.4-.4-4.1-1.6-5.2-4.1-2.7-6.2-10.1-7.4-14.6-2.3-3.3 3.7-5.7 7.9-3.6 13.4.9 2.3.8 5 1.3 7.5.7 3.5 2.5 6 6.4 6.4 3.8.4 7.3 0 9.5-3.6.2-.3.4-.6.5-1 1.3-6.4 6.5-5.9 11.1-6.1 3.6-.1 5.5 2.1 4.8 5.6-.5 2.6-1.5 5.2-2.8 7.5-1.4 2.5-3.4 4.7-5.2 6.9-.6.7-1.3 1.5-2 1.7-6.2 1.8-12.1 3.9-19 2.6-6.6-1.3-10.6-5.6-15.2-9.4-1.3-1.1-2.6-2.9-2.8-4.5-1.1-7.6-4.4-15-1-22.9 1.1-2.6 1.2-5.7 2.4-8.2 1-2 2.8-3.9 4.7-5.2 3.9-2.5 8.2-4.4 12.2-6.9 3.2-2 6.2-2 9.6-.6 3 1.2 6.2 2 9.3 3.1.7.2 1.4.5 2 .9 4.2 2.7 7.8 12.6 6.5 18.1ZM317.3 460.9c-4.9.2-8.9-1-12.8-4.5-2.3-2.1-4.9-3.9-7.2-6.2-2.9-3-4.5-6.5-5.2-10.5-.6-3.9-1.1-7.8-1.4-11.7-.1-1.2.5-2.4.7-3.7.3-1.5.6-3.1.8-4.6.1-.5-.2-1.3.1-1.6 3.1-3.5 4.1-9 9.8-10.1 1.2-.2 2.6-.6 3.5-1.4 3.6-3.3 7.6-3 12.1-3.1 5.8-.1 9.8 3.3 13.1 6.5 7.4 7.3 9.1 16.8 6.9 26.9-.3 1.4-.4 2.9-.3 4.3.4 9.7-9.7 20.7-20.1 19.7Zm7.3-15c.7-2.5 1.6-4.7 1.9-7 1-6.6.8-13-3.3-18.7-3.1-4.3-10.8-4.8-14-.5-4.7 6.3-4.3 13-1.4 19.9 2.1 5.1 5.9 7.1 11.1 7.1 1.8 0 3.8-.5 5.7-.8ZM366.4 462.9c-3.6-.8-7.6-1.8-11.6-2.8-.3-.1-.8-.2-.9-.5-4.3-5.8-10.9-10-11.1-18.6-.1-4.7-.5-9.3.4-14 1.7-8.1 5.4-14.5 13.2-18.1 1.5-.7 3-1.4 4.4-2.2 6.4-3.6 12.3-1.9 18.6.8 6.5 2.8 8.8 8.2 10.5 14.2 1.2 4.5-1.6 7.5-6.2 7-2.9-.4-5.5-1.4-7.3-4.1-2.6-4-7.1-5.8-11.1-4.8-3.4.9-8 5.9-7.9 9.6.2 4.8 1.1 9.7 2.4 14.3.9 3.3 4.1 4.6 7.4 4.4 3.7-.2 7.2-1 9.1-4.8.8-1.6 1.5-3.8 2.8-4.3 2.5-.8 5.3-.9 8-.7 1 .1 2.4 1.5 2.8 2.7 1.8 5.1-1.3 12.7-5.9 15.6-.6.4-1.4.6-1.9 1.1-4.2 4.7-9.9 4.1-15.7 5.2ZM737.6 105.3c3.4-4.4 6.3-8.3 9.2-12.1 3-4 9.4-6 16-2.7-.7 4.3-2.3 8.2-5.5 11.4-2.5 2.6-5.1 5.1-7.6 7.7-2.5 2.7-2.5 4.1-.5 7.2 2.6 4.1 5.1 8.3 7.4 12.6 1.9 3.4 1.8 3.5.3 7-1.6.2-3.2.3-4.8.5-2.7.4-4.5-.4-6.7-2.3-3.1-2.8-6.3-5.3-7.5-9.5-.2-.7-1.2-1.2-2.3-2.1-.9 2.1-1.9 3.9-2.5 5.7-1.3 4.6-3.6 7.5-9 7.5-3.4 0-6.7.2-10.6-1.4 2.2-5.7 4.5-11.1 8-16s3.5-4.9.3-9.8c-2.6-4.1-4.9-8.4-7.6-12.4-1.8-2.7-1.8-5 .4-7.6 1.2-.1 2.6-.2 4.1-.2 4.5 0 8.2.9 10.6 5.6 2 3.9 5.3 7.1 8.3 10.9ZM242.8 99c1.2 3.3 4.1 4.1 7 5.1 4 1.2 8.1 2.3 11.7 4.1 6.7 3.4 9.7 11.2 6.9 18.1-1.6 3.9-5 6.9-9 8.2-8.2 2.7-16.4 2.1-23.3-3-3.3-2.4-5.4-6.7-7.4-10.5-1.4-2.7.6-4.8 3.8-4.7.2 0 .4.2.5.1 5.2-1.1 8.5.9 11.1 5.7 1.9 3.4 6.2 3.8 9.7 2 2.4-1.2 2.6-3.8.3-5-2.4-1.3-5-2.1-7.6-3-5-1.7-10-3.2-13.8-7.2-1.3-1.4-2.7-2.9-3.3-4.6-2.3-6.5 1.7-13.9 8.2-15.9 1.6-.5 3.1-1 4.7-1.4 7.7-2.4 17.5.5 22.6 6.6 2.1 2.4 2.5 5.3 1.8 8.2-.3 1.2-2.2 3-3.2 2.9-3.3-.2-6.7 0-9-3.6-3-5.3-6-5.6-11.7-2.1ZM705.9 88.7c.2 2.4.4 3.9.4 5.3-.1 6-1.8 7.6-7.9 7.3-4-.2-7.9-.5-11.9-.5-2.5 0-2.5.1-3 4.5 6.3.4 12.5.8 19.1 1.2.4 1.3.9 2.7 1.1 4 .5 5.7-1.9 8.1-7.5 7.5-1.9-.2-3.9-.5-5.8-.7-1.9-.1-3.9 0-6 0-.3.8-.7 1.4-.8 2.1-.2 4.1.6 4.6 4.6 4.5 4.5-.1 9-.1 13.4.5 4.2.6 6.6 6.8 4.1 10.2-.7 1-2.5 1.6-3.8 1.7-2.8.2-5.7 0-8.6-.1-5.8-.1-11.5-.2-17.3-.5-4.1-.2-5.3-1.4-5.6-5.8-.3-4.9-.4-9.8-.4-14.7 0-7.3 0-14.7.1-22 0-3.3.7-4.4 4.1-4.3 6.3 0 12.5-1.3 18.8-.2 3.9.5 8.2 0 12.9 0ZM162.1 371.7v17.2c-5.8 3.1-17 3.9-24.8 1.6v-5.6c.3-12.2.6-24.3 1-36.5.2-5.7.8-6.5 6.6-7.1 4-.4 8-.4 11.9-.2 4.7.3 5.1.9 5.2 5.7 0 5.4 0 10.9.1 16.3 0 .3.2.7.5 1.7 32.4.4 65-.6 97.5-.5 32.6.1 65.3 0 98.7 0 .1 2.6.2 4.9.4 7.5-65.9 2.2-131.1-.4-197.1-.1Zm-22.9 16.8c7.2 1.4 13.9 1.7 20.5-.4v-42h-19.6c-.3 13.9-.6 27.9-.9 42.4Zm148.7-22c-1.4-.1-2.8-.4-4.2-.4-38.7.1-77.4.3-116 .4-1.5 0-3-.2-4.3.2-.6.2-.9 1.5-1.7 2.9 42.6.5 84.5.9 126.4 1.3.2-1.4.3-2 .3-2.7 0-.4-.3-.9-.5-1.7Zm-143-23.4c.2.7.2 1.2.3 1.2 4.7 1 8.5.6 11.2-1.2h-11.5ZM607.4 372.8v-8.4c65.7-.1 130.9 0 196.9.8 0-4.9.1-9.1.1-13.4v-2.2c-.1-8.1.1-8.4 8.4-8.6 3.6-.1 7.3.2 10.8.7 2.2.3 4.2 1.3 4.3 4.1.4 14.9.8 29.7 1.2 45.3-8.4.8-16.3 1.6-24.7-1.5v-17.8c-65.8.3-131 .6-197 1Zm218.9-26.7h-19.8v42c6.9 2 13.6 1.9 20.7.3-.3-14.3-.6-28.2-.9-42.3Zm-21.6 23.6c-.8-1.4-1.1-2.7-1.7-2.9-1.4-.4-2.9-.2-4.3-.2-38.7-.2-77.4-.3-116-.4-1.4 0-2.8.2-4.6.4.1 1.6.3 2.9.4 4.5 42-.5 83.8-1 126.2-1.4Zm5-26.8c0 .4.1.8.1 1.3h11.6c-3.7-2-7.7-1.7-11.7-1.3ZM354.2 109c.5 8.3 1 16 1.5 23.9-2.7.5-4.8 1-6.9 1.2-2.5.2-4.3-1.1-4.5-3.7-.3-3.3 0-6.7-.2-10.1-.1-1.8-.8-3.5-.9-5.2-.2-4.4-.1-8.9-.3-13.3-.1-2.5-.3-5-.7-7.5-.6-4.1.5-5.6 4.7-6.3 5.1-.9 8.3.9 10.3 5.6.3.7.5 1.4.9 2 3.5 5.4 7 10.8 10.8 16.6-.3-6.4-.5-12.4-.9-18.4-.3-5.4 1.3-6.8 6.6-5.7 4.8 1 5.3 2.1 4.7 7.1-.4 3.3.1 6.7.3 10.1.4 6.8.8 13.5 1.3 20.3.4 5.6-.5 7.1-5.5 8.2-4.6 1-7.7-.8-9.3-5.3-1.2-4-8.7-16.1-11.9-19.5ZM97.3 220.7c-.1-1.6-.3-3.2-.4-4.8-.4-3.8 1.1-5.7 5-6.3 1.6-.3 3.2-.5 4.8-.8 7.1-1.2 10.1 1.5 9.2 8.7-1.3 9.4-.4 18.7-.8 28-.2 4.3-.6 8.6-.7 12.9-.1 3.4 0 6.7 0 10.1 0 2 .1 4 0 6-.1 1.7-1.2 2.5-2.9 2.6-2.7.3-5.3.7-8 1.2-6.1 1.1-9.3-2.3-8.5-8.4.7-5.7.9-11.4 1.3-17.2.3-5.2-1.3-10.5.8-15.6.1-.3.1-.8 0-1.1-2.6-5 .4-10.1.2-15.3ZM821.3 104.4c2.5 1.5 3.9 2.5 5.5 3.2 4.5 1.9 9.1 3.6 13.5 5.6 5.2 2.4 8.1 10.8 5.4 15.8-3 5.5-8 9.5-13.9 10.3-5.3.7-11-.2-16-3.5-5.5-3.6-7.3-8.4-7.3-14.8 5.3-1 9.9-1 13.1 4.1 2.3 3.7 6.2 3.2 9.7 3 2.7-.2 3.4-3 1.2-4.7-2.1-1.6-4.6-3.3-7.1-3.7-3.8-.5-6.8-2.2-10-4-3.9-2.2-6.2-5.1-5.6-10.1.5-3.8.2-8 4.1-10 6.6-3.4 13.5-6.4 21.1-2.5 1.4.7 2.9 1.5 4.4 2.1 4.4 1.7 5.3 5.7 6 9.6.1.7-.4 2.2-.9 2.3-2.6.6-5.2 1.2-7.8 1.1-1.2-.1-2.5-1.7-3.3-2.9-2-3-3.9-4.3-7.1-3.6-1.4.2-2.6 1.3-5 2.7ZM497.6 448c6.8 3.7 14 0 21 2.1 1.4 4.4 2.4 8.9 1.5 13.2-5 .8-9.4 1.6-13.8 2.1-2.9.3-5.8.3-8.7.2-3.8-.2-7.5-.7-11.3-1-3.6-.2-5.1-1.3-5-4.9.2-7.9.6-15.9 1-23.8.1-2 .6-4.2 0-5.9-1.9-5.8.3-11.4 0-17.1-.2-4.2.4-4.4 4.7-4.9 10.3-1.1 11.7.4 10.2 10.4-.2 1.1-.5 2.2-.3 3.2 1.8 8.8 1.1 17.6.7 26.4ZM601.2 446.8c3.4 0 5.8.4 8-.1 3.8-.8 7.1.2 10.5 1.4 1.1.4 2.6 1.3 2.7 2.1.5 3.4.7 6.8.5 10.2-.1 2.2-2.5 2.4-4.3 2.5-3.4.2-6.9.2-10.3.3-4.9.1-9.7.3-14.6.4-4.6 0-7.8-2.5-7.5-7 .6-8.5-1-17.1 1.6-25.4.3-.8.3-1.8.2-2.7-.3-5.4-.8-10.8-.9-16.2-.1-4.9 1.1-5.9 6.1-5.8h1.1c7.1.1 7.4.5 7.4 7.3 0 3.8.6 7.6.5 11.3-.1 3.2-.9 6.4-1 9.7-.2 3.8 0 7.4 0 12ZM220.2 100.3c0 5.2.3 10.4-.1 15.6-.3 3.7-1.2 7.4-2.5 10.9-1.6 4.5-5.6 6.9-9.9 7.8-5.6 1.1-11.2 2-17-.1-5.4-2-8.5-5.4-9.9-10.5-.7-2.6-.9-5.4-.9-8 0-7.1.1-14.2.2-21.4 0-1.9.8-3.7 2.9-4 2.3-.3 4.7-.5 6.9-.3 2 .2 3.1 1.7 3.1 3.8-.1 7.3-.2 14.7-.4 22-.2 6 2.3 9.6 7 9.5 5.3-.2 8.3-3.7 8.2-9.3-.1-7.1-.1-14.2-.1-21.4 0-3.3 2.8-5.2 6.9-5.1 3.7.1 5.4 1.6 5.4 5.2 0 1.8-.2 3.6-.3 5.4.2-.1.3-.1.5-.1ZM803.2 136.3c-3.7.4-7 .7-9.9 1-.7-.8-1-1-1.2-1.3-1.2-2.8-1.6-6.7-3.8-8.1-2.3-1.5-6.2-.8-9.4-.9-2.5 0-3.5 1.7-4.5 3.9-2.7 6.1-6.7 7.3-13.7 4.1.6-4.1 2.1-8 3.7-12 .5-1.2 1.4-2.1 1.8-3.3 2.6-7.3 5.1-14.6 7.6-21.9 2.4-7.1 8.1-9.8 13.8-6.3 3 1.8 4.2 5.2 5.2 8.5 2 6.5 3.9 13 5.9 19.5 1.3 4.1 2.8 8.1 4.1 12.2.3 1.1.2 2.6.4 4.6Zm-18-20.6c-1.1-2.5-1.9-4.3-2.9-6.7-1.2 2.7-2 4.6-2.9 6.7h5.8ZM143.6 124.4c-.5 2-.8 3.3-1.2 4.4-1.5 3.8-6.7 6-10.5 4.5-1.8-.7-2.5-2-1.8-3.9 1.6-4.2 3.1-8.4 4.6-12.6 3-7.9 6.1-15.7 9-23.6 1.1-3.1 3-4.7 6.4-4.8 3.4-.1 6.1.1 7.8 4.1 2.6 6.1 4.8 12.3 6.4 18.7 1 4.1 3 8.1 4.5 12.1.9 2.4 2 4.6 2.9 7 1 2.8-.1 4.2-3 4.2-.7 0-1.4-.2-2.2-.3-5.9-.4-5.9-.4-7.5-6-1.2-4-1.6-4.2-5.6-3.8-3.1.2-6.3 0-9.8 0Zm4-10h6.4c-.9-3-1.7-5.6-2.9-9.3-1.4 3.7-2.3 6.1-3.5 9.3ZM297.1 134.1c-2.7.5-5.1 1.2-7.6 1.4-4.1.4-5.3-.6-5.4-4.7-.1-5 0-10.1.2-15.1.1-3.4.6-6.8.8-10.2 0-.8-.5-1.7-.8-2.7-4.2-.2-8.4-.2-11.7-3.8.5-1.2 1.2-2.5 1.6-3.8 1.5-5.4 1.4-5.5 7-5.4 8.1.1 16.2.4 24.3.7 1.2 0 2.4.5 3.8.9v10.3c-3.2 3-6.7-1.1-10.1.7-3.2 4.8-.6 10.4-1.5 15.6-1 5-.5 10.3-.6 16.1ZM659 101.7c-4.2-.9-7.8-2.7-11.5-.9-.2.5-.5 1-.3 1.2 1.7 2.7 1.3 5.5 1.2 8.5-.3 6.3.1 12.6.2 19 0 4.1-.4 4.3-4.7 4.1-2.1-.1-4.2.3-7 .5-.5-3.1-1.3-6.2-1.6-9.4-.3-3.4 0-6.8 0-10.2V100c-3 .1-5.7.3-8.3.4-2.2 0-3.4-1-3.1-3.4.1-.9.4-1.8.4-2.7.1-1.5-.5-3.9.2-4.4 1.9-1.2 4.2-2.1 6.5-2.2 4.8-.3 9.6-.3 14.3-.1 3.7.2 7.5.6 11.2 1.3 1 .2 2.3 1.5 2.4 2.4.3 3.3.1 6.5.1 10.4ZM414.3 411.9c-.1 10.5-.1 20.9-.2 31.4 0 4.1-.1 8.2-.3 12.3-.2 4-2 5.4-6.1 5.5-1.4 0-2.8.4-4.2.7-3 .6-5-.5-5.6-3.4-.2-1-.2-2.2-.2-3.2.3-10.6.7-21.2 1-31.9.1-4.3 1.6-8.5.3-12.9-.3-1 1.3-3.3 2.4-3.6 2.9-.9 6-1.3 9.1-1.4 3.4.1 4.5 1.9 3.8 6.5ZM327.3 89.7c5.3-.5 6 .4 5.5 5.5-.4 5-.7 10-.5 15 .3 5.9-1.1 11.7.5 17.7 1.2 4.5-1.9 7.1-6.9 7.4h-1.1c-6.1.6-6.7.2-6.6-5.7.2-11.3.5-22.6.9-34 .3-5 .9-5.3 8.2-5.9ZM433.1 41.4c1.3 1.2 2.7 2.3 4 3.5 2.2 2.1 2.8 4.8 1.8 7.5-1 2.7-3 4.4-6.1 4.7-4.6.5-9 .5-12.4-3.4-1.5-1.7-1.7-2-1.8-6.2 2.9.2 5.5.1 7.7 2.8 1.7 2.2 3.9 2.1 6.5-.6-2-.8-3.5-1.9-5.2-2.1-3.2-.4-5.2-2.2-7.1-4.5-2.7-3.2-2.4-6.8.9-9.1 6.4-4.6 14.7-1.9 17.4 5.9-1.5 1.8-3.4 2.2-5.7 1.6-.7-1-1.3-2.1-2.2-2.9-1.5-1.2-3.2-1.7-4.4.9 1.9 1.3 4 2.3 6.6 1.9ZM528.6 45.4c-.1 1.7-.3 3.2-.2 4.6.3 4.8-1.5 6.9-7.4 8.2-4.6 1-8.1-1.6-7.9-6.3.2-5.3 1-10.7 2.2-15.9 1.1-4.8 7.4-5.8 10.8-2.1 3.2 3.5 2.3 7.8 2.5 11.5Zm-6.8-4.5c-3.2 3.1-2.1 6.2-1.7 9.6 3.2-2.9 1.7-6 1.7-9.6ZM397.5 32.9h16.3v4.6c-3.3 2.5-7.3-1.1-10.5 1.9 2.7 2.8 6.1.6 9.4 1.9.1 1.3.2 2.8.2 3.7-2.8 3.2-7.7-1.7-9.9 4.3h6.5c4.7-.1 4.8 0 4.1 5.4-4.5 0-8.9.1-13.4-.1-1.8-.1-2.7-1.5-2.7-3.4V32.9ZM484.9 54.3c3.5-2.4 6.3-4 8.7-6 1.7-1.4 3.3-3.4 4.1-5.4.4-1-1-2.8-1.6-4.2-1.2.6-3 .8-3.6 1.7-1.3 2.1-2.6 3.3-5.1 2.1-.7-6.5 4.9-11.5 11.1-9.8 4 1.1 6 4.5 5.1 9.4-.5 2.8-1.5 5.5-2.3 8.5 1.8.4 3.3.7 5 1.1v5.2c-1.5-.1-2.7-.3-3.9-.3-2.5 0-5 .1-7.4.2-2 .1-4 .4-5.9.2-1.3-.2-2.3-1.4-4.2-2.7ZM540.7 57.1c-5.2 0-7.2-2.3-6.5-8 .5-4.1 1.3-8.2 2.5-12.2.5-1.7 1.8-3.6 3.3-4.6 2.2-1.5 5.9-.5 6.4 1.9 1.2 5.6 2.3 11.4 2.2 17-.1 5-2.1 5.9-7.9 5.9Zm-.2-7.4c3.5-3.6 3.5-3.6.5-6.8-.2.8-.5 1.5-.5 2.1v4.7ZM454.5 57.2h-6.3V40.4c-2.9-.6-5.2-1-7.8-1.6.1-2.3.2-4.1.4-6.3 1.8-.2 3.3-.5 4.9-.5 4.3 0 8.6.1 12.9.1 3.2 0 4.5 1 4.5 3.4 0 2.2-1.1 3.4-3.2 3.6-1.6.2-3.2.2-5.4.3v17.8ZM569 56.2c-2.3.4-4.2.7-6.5 1.1v-11c-1.6 0-2.8-.2-3.9 0-2.8.6-4.7-1.3-4.9-3.2-.4-2.9-.1-6.2 1.1-8.8 1.3-2.8 4.7-3.1 7.7-2.7 4.4.6 5.2 2.2 6.4 6.5 1.4 5.9-1 11.5.1 18.1Zm-8.2-14.8c.6-.9 1.3-1.5 1.2-1.9-.2-.7-.8-1.3-1.3-2-.6.5-1.7 1-1.7 1.5.1.8 1 1.4 1.8 2.4Z" fill="#000"/><path d="M511.6 121.1c-2.4-3.6-1.4-6.9 1.1-11 2.1 4.6 1 7.8-1.1 11ZM522.9 90.2c.2-5 2.3-7.7 5.7-9.9.8 3.7-.4 5.9-5.7 9.9ZM509.5 77.1c3.5 2.6 2.5 5.9 2.1 10-3.9-3.2-3.2-6.6-2.1-10ZM528.9 123.6c-3.6-1.6-3.2-4.6-3.4-7.7 3.8 1.8 4.4 3.1 3.4 7.7ZM538.5 116.2c1.6 2.2 3.5 4.1 1.4 7.1-3.2-3.3-3.2-3.8-1.4-7.1ZM494.3 79.4c1.7 1.3 3.3 2.5 4.8 3.7-.2.4-.3.8-.5 1.2-1 0-2.2.4-3-.1-1.3-.9-2.8-2.1-1.3-4.8ZM531.7 102.8c.7 1.6 1.3 3.2 2.4 5.8-3.6-1.4-3.7-3.3-4-5.1.6-.2 1.1-.5 1.6-.7ZM541.9 93.1c-1.2 1.2-2.5 2.4-4.4 4.3-.3-4 1-5.1 3.3-5.4l1.1 1.1ZM460.6 57.8c-.8-1.1-1.7-1.9-1.6-2.4.1-.7 1-1.6 1.6-1.7.5-.1 1.8 1 1.7 1.4-.1.8-.9 1.5-1.7 2.7ZM519.1 104c-1.4-1-2-2.1 0-4.5.6 1.8 1 3 1.4 4.1-.5.1-.9.3-1.4.4ZM498.5 98.6c1.5-1.4 2.4-2.3 3.9-3.6-.5 3.3-.5 3.3-3.9 3.6Z" fill="#000"/><path d="M325.5 337.2 267 278.1c5.5-13.7 15.8-23.3 27.7-32.1 20 19.2 39.9 38.3 60 57.6-11.6 9.3-21.5 19.9-29.2 33.6Zm-23.9-40.5c-.1-2-1.9-3.8-3.8-3.9-1.8-.1-3.5 1.6-3.5 3.4 0 2.2 2 4.6 3.8 4.6 1.9 0 3.6-2 3.5-4.1Zm19-18c-1.7-1.7-2.6-3.1-3.8-3.6-1.8-.6-3.4 1.1-3.4 3.1 0 1.9 1.1 3.3 2.9 3.1 1.3-.1 2.5-1.3 4.3-2.6ZM495.5 221.4c-.4 1.7-.9 4.8-2 7.6-2.9 6.8-8.4 7.3-12.7 1.2-3.4-4.9-4.4-10.7-4.1-16.5.1-2.5.7-5 1.6-7.4 2.6-6.6 8-7.2 12.3-1.5 3.4 4.5 4.5 9.7 4.9 16.6Zm-5.4-8.3c.1-2.1-1.3-3.5-3.3-3.5-2 0-3.8 2-4 4.4-.1 2.1.9 3.5 2.9 3.9 2 .3 4.3-2.4 4.4-4.8ZM465.4 141c-1.2 1.2-2.3 2.6-3.5 3.7-43.2 41.2-86.4 82.5-129.6 123.7-1 1-2.1 2.1-3.3 2.9-.5.3-1.5-.2-3.5-.5 46.6-44.3 93-87.2 138.9-130.7.3.3.7.6 1 .9ZM329.8 338.3c5.2-11 17.7-25.3 26.5-30.5-1.3 7.2-17.4 26.1-26.5 30.5ZM460.4 301.3c-1.7-2.2 1.4-7-4.9-6.7 5.3-1.3 5.5-.9 4.9 6.7ZM444.6 304.3v-10.2h.5v10.4c-.1-.1-.3-.1-.5-.2ZM497.4 295c.4 3.1.7 6.1 1.1 9.2-.2 0-.5.1-.7.1-.5-3.1-1.1-6.3-1.6-9.4.4.1.8.1 1.2.1ZM426.3 292.7c-.3-2.9-.5-5.9-.8-8.8.5 0 1 0 1.4-.1.5 3-.1 6-.6 8.9ZM434 291.8v9h-.2c-.2-2.9-.4-5.9-.6-8.8.3 0 .5-.1.8-.2ZM472.7 302.8c-.4-1.2-.8-2.4-1.1-3.6.2-.1.5-.2.7-.2.4 1.2.9 2.4 1.3 3.6-.3 0-.6.1-.9.2ZM508 296.8c-.1-1.1-.2-2.3-.2-3.4.2 0 .5 0 .7-.1.1 1.1.2 2.3.3 3.4-.3.1-.6.1-.8.1ZM766.2 228.6c5.2-1.8 8.2 2.7 12.3 4.3.6.2.9 1.5 1.1 2.4 1.4 5.8 3.4 11.5 4 17.4.7 7.1-1.4 14-5.5 19.9-3 4.4-11.3 5.2-15.6 2.2-2.5-1.8-5-3.6-7.1-5.7-1.1-1.1-1.9-2.7-2.1-4.3-1.2-6.5-2.9-12.9-2.2-19.8.6-5.2 2.6-9.4 5.7-13.2 2.2-2.9 5.7-3.8 9.4-3.2ZM914.3 262.6v6.5c.1 5.7-3.3 10.1-8.7 10.4-3.5.2-7.9.4-10.5-1.3-4.6-3.2-9.3-6.8-11.4-12.6-3.6-9.7-2.1-19 2.2-27.8 1.5-3.1 4.3-5.8 8.6-5.4 3.1.3 6.1-.7 9.4.9 6.3 3.2 8.6 8.6 9.7 14.7.9 4.8.7 9.7.9 14.6-.1-.1-.2-.1-.2 0ZM707.4 227.3c1.7 6.4-.9 9.8-7.2 9.8-3.1 0-6.1.5-9.2.6-4.6.1-5.3-.7-4.7-5.3.9-7.5.9-7.2 8.6-7 4.3.1 8.6-.4 12.5 1.9ZM46.2 261c.6-3.7 1.1-7.1 1.7-11.3 4.4.1 8.7.1 12.9.4 3.8.3 5.1 1.9 5.3 5.4.2 4.5-.4 5.5-4.6 6.5-1.9.4-3.9.4-5.8.2-2.8-.2-5.6-.7-9.5-1.2ZM48.1 226.5c5.2-1.9 9.9 0 14.7.4 2.1.2 2.7 2.7 1.7 5.4-.9 2.4-3.3 4.1-4.8 2.8-1.9-1.7-3.1-.6-4.8-.2-2.4.5-4.8.6-8.1.9.4-3.7.8-6.2 1.3-9.3ZM698.3 451.5c.2-3.6.3-6.3.4-9.6 4.8-.4 9.5-.8 14.1 1 2.1.8 2.7 2.7 2.4 4.9-.3 2.1-1.3 3.7-3.8 3.7h-13.1ZM698.8 428.4c-.2-1.3-.5-2.3-.5-3.4-.2-4.4.4-4.9 4.8-4.5 2.3.2 4.7.3 7 .8 2 .5 3.7 1.6 3.2 4.2-.4 2.3-2.2 3.1-4.9 2.9-3-.2-6 0-9.6 0ZM443.6 437c1.4-3.9 2.5-6.9 3.9-11 1.9 4 3.4 7.3 5.1 11h-9ZM324.6 445.9c-1.9.3-3.9.8-5.8.8-5.1 0-9-2-11.1-7.1-2.8-6.9-3.3-13.7 1.4-19.9 3.2-4.3 10.9-3.8 14 .5 4.1 5.7 4.3 12.1 3.3 18.7-.2 2.2-1.1 4.5-1.8 7ZM139.2 388.5c.3-14.4.6-28.5.9-42.4h19.6v42c-6.6 2.1-13.3 1.8-20.5.4Zm3.2-23.1c-1.4 1.1-2.6 2-1.2 3.6.3.4 1.6.7 1.8.4 1.2-1.1 1.2-2.4-.6-4Zm11.5 4.1c.6.1 1.2.1 1.8.2 0-1 .2-2 0-3 0-.2-1.1-.2-1.7-.3 0 1 0 2.1-.1 3.1ZM287.9 366.5c.2.8.4 1.3.4 1.8 0 .7-.2 1.4-.3 2.7-42-.4-83.8-.9-126.4-1.3.8-1.4 1.1-2.7 1.7-2.9 1.4-.4 2.9-.2 4.3-.2 38.7-.2 77.4-.3 116-.4 1.5-.1 2.9.2 4.3.3ZM144.9 343.1h11.6c-2.7 1.8-6.5 2.2-11.2 1.2-.2 0-.2-.5-.4-1.2ZM826.3 346.1c.3 14.1.6 28 .9 42.3-7.1 1.6-13.8 1.7-20.7-.3v-42h19.8Zm-14.7 20.1c-1.1 1.6-1.9 2.4-1.8 2.5.4.6 1.1.9 1.7 1.4.3-.5.9-1 .9-1.5.1-.7-.4-1.3-.8-2.4Zm13.7 2.9c-.8-.7-1.4-1.6-1.7-1.5-.7.2-1.4.8-1.7 1.4-.1.2.8 1.5 1.1 1.4.8-.1 1.4-.7 2.3-1.3ZM804.7 369.7c-42.5.5-84.2.9-126.3 1.4-.1-1.6-.3-2.9-.4-4.5 1.8-.2 3.2-.4 4.6-.4 38.7.1 77.4.3 116 .4 1.5 0 3-.2 4.3.2.7.2 1 1.5 1.8 2.9ZM809.7 342.9c4-.3 7.9-.7 11.7 1.3h-11.6c0-.5 0-.9-.1-1.3ZM785.2 115.7h-5.8c.9-2.1 1.7-4 2.9-6.7 1.1 2.5 1.9 4.3 2.9 6.7ZM147.6 114.4c1.2-3.2 2.1-5.6 3.5-9.3 1.2 3.8 2 6.4 2.9 9.3h-6.4ZM433.1 41.4c-2.6.5-4.7-.6-6.7-1.9 1.2-2.6 2.9-2.1 4.4-.9.9.7 1.5 1.9 2.2 2.9-.1 0 .1-.1.1-.1ZM521.8 40.9c0 3.6 1.5 6.7-1.7 9.6-.4-3.4-1.5-6.5 1.7-9.6ZM540.5 49.7v-4.6c0-.6.3-1.3.5-2.1 3 3 3 3-.5 6.7ZM560.8 41.4c-.8-1-1.7-1.6-1.7-2.3 0-.5 1.1-1 1.7-1.5.5.7 1.1 1.3 1.3 2 0 .4-.7 1-1.3 1.8Z" fill="#FFF"/><path d="M301.6 296.7c.1 2.1-1.6 4.1-3.5 4.1-1.8 0-3.9-2.4-3.8-4.6 0-1.9 1.7-3.5 3.5-3.4 1.9.1 3.7 1.9 3.8 3.9ZM320.6 278.7c-1.9 1.2-3 2.5-4.2 2.6-1.8.2-2.9-1.2-2.9-3.1 0-2.1 1.6-3.8 3.4-3.1 1.2.5 2 2 3.7 3.6ZM490.1 213.1c-.1 2.4-2.4 5.1-4.3 4.8-2.1-.4-3.1-1.8-2.9-3.9.1-2.4 2-4.4 4-4.4 1.9-.1 3.3 1.4 3.2 3.5ZM142.4 365.4c1.8 1.6 1.8 2.9.6 4.1-.3.2-1.5 0-1.8-.4-1.4-1.6-.2-2.6 1.2-3.7ZM153.9 369.5c0-1 .1-2.1.1-3.1.6.1 1.7.1 1.7.3.1 1 0 2 0 3-.5-.1-1.1-.1-1.8-.2ZM811.6 366.2c.5 1.1.9 1.8.9 2.4 0 .5-.6 1-.9 1.5-.6-.4-1.3-.8-1.7-1.4-.2-.2.5-.9 1.7-2.5ZM825.3 369.1c-1 .6-1.6 1.3-2.3 1.4-.3 0-1.2-1.2-1.1-1.4.3-.6 1-1.2 1.7-1.4.4-.2 1 .6 1.7 1.4Z" fill="#000"/></g></svg>